<?xml version="1.0" encoding="UTF-8" standalone="no"?>
<!DOCTYPE svg PUBLIC "-//W3C//DTD SVG 1.1//EN" "http://www.w3.org/Graphics/SVG/1.1/DTD/svg11.dtd">
<svg width="100%" height="100%" viewBox="0 0 863 165" version="1.1" xmlns="http://www.w3.org/2000/svg" xmlns:xlink="http://www.w3.org/1999/xlink" xml:space="preserve" xmlns:serif="http://www.serif.com/" style="fill-rule:evenodd;clip-rule:evenodd;stroke-linejoin:round;stroke-miterlimit:2;">
    <g transform="matrix(1,0,0,1,-108.765,-474.928)">
        <g transform="matrix(3.9125,0,0,3.9125,-773.971,-1638.89)">
            <g transform="matrix(19.2,0,0,19.2,268.703,559.69)">
                <path d="M0.588,-0.023C0.555,-0.012 0.521,-0.003 0.487,0.003C0.453,0.009 0.419,0.012 0.386,0.012C0.353,0.012 0.323,0.009 0.294,0.002C0.265,-0.005 0.239,-0.015 0.216,-0.028C0.162,-0.058 0.12,-0.101 0.089,-0.156C0.058,-0.211 0.043,-0.271 0.043,-0.336C0.043,-0.44 0.075,-0.524 0.138,-0.588C0.202,-0.651 0.286,-0.683 0.39,-0.683C0.42,-0.683 0.452,-0.68 0.485,-0.675C0.518,-0.669 0.552,-0.66 0.588,-0.649L0.588,-0.495L0.532,-0.495L0.517,-0.586L0.504,-0.604C0.485,-0.613 0.466,-0.619 0.448,-0.624C0.43,-0.628 0.411,-0.63 0.392,-0.63C0.317,-0.63 0.257,-0.604 0.212,-0.553C0.168,-0.501 0.146,-0.431 0.146,-0.343C0.146,-0.249 0.169,-0.175 0.215,-0.121C0.262,-0.068 0.326,-0.041 0.407,-0.041C0.422,-0.041 0.436,-0.042 0.45,-0.044C0.465,-0.046 0.479,-0.05 0.494,-0.054L0.51,-0.07L0.534,-0.181L0.588,-0.181L0.588,-0.023Z" style="fill:white;fill-rule:nonzero;"/>
            </g>
            <g transform="matrix(19.2,0,0,19.2,280.834,559.69)">
                <path d="M0.269,-0.448C0.227,-0.448 0.194,-0.429 0.169,-0.392C0.143,-0.354 0.131,-0.304 0.131,-0.241C0.131,-0.178 0.144,-0.128 0.169,-0.091C0.194,-0.053 0.228,-0.034 0.269,-0.034C0.311,-0.034 0.345,-0.053 0.37,-0.09C0.396,-0.128 0.408,-0.178 0.408,-0.241C0.408,-0.304 0.395,-0.354 0.37,-0.392C0.344,-0.429 0.311,-0.448 0.269,-0.448ZM0.269,-0.491C0.337,-0.491 0.393,-0.468 0.437,-0.421C0.48,-0.374 0.502,-0.314 0.502,-0.241C0.502,-0.168 0.48,-0.108 0.436,-0.061C0.392,-0.015 0.337,0.009 0.269,0.009C0.201,0.009 0.146,-0.014 0.102,-0.061C0.059,-0.108 0.037,-0.168 0.037,-0.241C0.037,-0.315 0.059,-0.375 0.102,-0.421C0.145,-0.468 0.201,-0.491 0.269,-0.491Z" style="fill:white;fill-rule:nonzero;"/>
            </g>
            <g transform="matrix(19.2,0,0,19.2,291.184,559.69)">
                <path d="M0.454,-0.424C0.493,-0.447 0.526,-0.464 0.554,-0.475C0.583,-0.486 0.606,-0.491 0.626,-0.491C0.666,-0.491 0.698,-0.478 0.72,-0.452C0.743,-0.426 0.754,-0.389 0.754,-0.342L0.754,-0.057L0.772,-0.041L0.825,-0.036L0.825,-0L0.607,-0L0.607,-0.036L0.654,-0.041L0.672,-0.057L0.672,-0.322C0.672,-0.357 0.665,-0.383 0.65,-0.4C0.635,-0.417 0.613,-0.425 0.582,-0.425C0.567,-0.425 0.55,-0.422 0.531,-0.417C0.512,-0.411 0.492,-0.403 0.469,-0.392L0.469,-0.057L0.487,-0.041L0.534,-0.036L0.534,-0L0.321,-0L0.321,-0.036L0.369,-0.041L0.386,-0.057L0.386,-0.322C0.386,-0.357 0.379,-0.383 0.365,-0.4C0.35,-0.416 0.328,-0.425 0.298,-0.425C0.282,-0.425 0.264,-0.422 0.245,-0.417C0.227,-0.411 0.206,-0.403 0.184,-0.392L0.184,-0.057L0.201,-0.041L0.249,-0.036L0.249,-0L0.03,-0L0.03,-0.036L0.084,-0.041L0.101,-0.057L0.101,-0.419L0.03,-0.419L0.03,-0.45L0.146,-0.486L0.184,-0.486L0.184,-0.431C0.219,-0.452 0.249,-0.467 0.275,-0.477C0.301,-0.486 0.324,-0.491 0.344,-0.491C0.369,-0.491 0.39,-0.486 0.409,-0.474C0.428,-0.463 0.443,-0.446 0.454,-0.424Z" style="fill:white;fill-rule:nonzero;"/>
            </g>
            <g transform="matrix(19.2,0,0,19.2,307.365,559.69)">
                <path d="M0.177,-0.058C0.193,-0.053 0.208,-0.049 0.222,-0.046C0.237,-0.043 0.25,-0.042 0.262,-0.042C0.312,-0.042 0.352,-0.06 0.382,-0.097C0.413,-0.134 0.428,-0.183 0.428,-0.244C0.428,-0.3 0.415,-0.345 0.388,-0.378C0.362,-0.412 0.326,-0.428 0.282,-0.428C0.266,-0.428 0.25,-0.425 0.233,-0.42C0.216,-0.414 0.197,-0.406 0.177,-0.394L0.177,-0.058ZM0.023,0.218L0.023,0.182L0.077,0.177L0.093,0.161L0.093,-0.419L0.023,-0.419L0.023,-0.45L0.139,-0.486L0.177,-0.486L0.177,-0.431C0.204,-0.452 0.23,-0.467 0.254,-0.477C0.278,-0.486 0.301,-0.491 0.324,-0.491C0.38,-0.491 0.426,-0.469 0.462,-0.426C0.498,-0.382 0.516,-0.326 0.516,-0.257C0.516,-0.178 0.494,-0.115 0.449,-0.068C0.404,-0.021 0.344,0.003 0.27,0.003C0.257,0.003 0.243,0.002 0.228,0.001C0.213,-0.001 0.196,-0.003 0.177,-0.006L0.177,0.161L0.194,0.177L0.258,0.182L0.258,0.218L0.023,0.218Z" style="fill:white;fill-rule:nonzero;"/>
            </g>
            <g transform="matrix(19.2,0,0,19.2,317.94,559.69)">
                <path d="M0.142,-0.491L0.18,-0.491L0.18,-0.16C0.18,-0.124 0.188,-0.097 0.204,-0.08C0.219,-0.063 0.244,-0.054 0.277,-0.054C0.295,-0.054 0.314,-0.057 0.333,-0.062C0.352,-0.066 0.372,-0.074 0.393,-0.084L0.393,-0.423L0.322,-0.423L0.322,-0.454L0.438,-0.491L0.476,-0.491L0.476,-0.057L0.494,-0.041L0.541,-0.036L0.541,-0L0.393,-0L0.393,-0.056C0.362,-0.034 0.333,-0.017 0.306,-0.006C0.28,0.004 0.255,0.01 0.231,0.01C0.188,0.01 0.155,-0.003 0.132,-0.03C0.109,-0.056 0.097,-0.094 0.097,-0.143L0.097,-0.423L0.026,-0.423L0.026,-0.454L0.142,-0.491Z" style="fill:white;fill-rule:nonzero;"/>
            </g>
            <g transform="matrix(19.2,0,0,19.2,328.862,559.69)">
                <path d="M0.088,-0.421L0.025,-0.421L0.025,-0.452L0.091,-0.481L0.134,-0.574L0.171,-0.574L0.171,-0.468L0.323,-0.468L0.323,-0.421L0.171,-0.421L0.171,-0.157C0.171,-0.114 0.177,-0.085 0.189,-0.07C0.201,-0.055 0.223,-0.048 0.254,-0.048C0.265,-0.048 0.276,-0.049 0.287,-0.05C0.299,-0.051 0.311,-0.053 0.323,-0.056L0.323,-0.019C0.3,-0.012 0.278,-0.006 0.256,-0.003C0.234,0.001 0.212,0.003 0.192,0.003C0.153,0.003 0.127,-0.004 0.111,-0.019C0.096,-0.033 0.088,-0.06 0.088,-0.098L0.088,-0.421Z" style="fill:white;fill-rule:nonzero;"/>
            </g>
            <g transform="matrix(19.2,0,0,19.2,335.274,559.69)">
                <path d="M0.359,-0.305L0.359,-0.321C0.359,-0.361 0.35,-0.392 0.332,-0.414C0.315,-0.435 0.289,-0.446 0.255,-0.446C0.222,-0.446 0.193,-0.433 0.169,-0.406C0.144,-0.379 0.131,-0.346 0.128,-0.305L0.359,-0.305ZM0.448,-0.106L0.448,-0.051C0.419,-0.031 0.388,-0.016 0.356,-0.006C0.324,0.004 0.292,0.009 0.26,0.009C0.194,0.009 0.14,-0.014 0.099,-0.059C0.058,-0.105 0.037,-0.164 0.037,-0.237C0.037,-0.312 0.059,-0.373 0.102,-0.42C0.145,-0.468 0.2,-0.491 0.268,-0.491C0.323,-0.491 0.367,-0.474 0.4,-0.438C0.432,-0.403 0.448,-0.355 0.448,-0.294C0.448,-0.286 0.448,-0.28 0.448,-0.275C0.448,-0.271 0.447,-0.267 0.447,-0.263L0.123,-0.263L0.123,-0.252C0.123,-0.189 0.138,-0.139 0.168,-0.103C0.199,-0.066 0.24,-0.048 0.291,-0.048C0.315,-0.048 0.339,-0.053 0.365,-0.062C0.391,-0.071 0.418,-0.086 0.448,-0.106Z" style="fill:white;fill-rule:nonzero;"/>
            </g>
            <g transform="matrix(19.2,0,0,19.2,344.706,559.69)">
                <path d="M0.03,-0L0.03,-0.036L0.083,-0.041L0.1,-0.057L0.1,-0.419L0.03,-0.419L0.03,-0.45L0.146,-0.486L0.184,-0.486L0.184,-0.392C0.2,-0.409 0.217,-0.425 0.235,-0.441C0.253,-0.457 0.271,-0.473 0.291,-0.489C0.294,-0.49 0.297,-0.49 0.301,-0.491C0.304,-0.491 0.309,-0.491 0.316,-0.491C0.326,-0.491 0.336,-0.49 0.346,-0.488C0.355,-0.486 0.366,-0.483 0.376,-0.478L0.376,-0.392L0.344,-0.392C0.338,-0.4 0.33,-0.406 0.322,-0.41C0.313,-0.414 0.303,-0.416 0.293,-0.416C0.277,-0.416 0.26,-0.41 0.242,-0.398C0.225,-0.386 0.205,-0.368 0.184,-0.343L0.184,-0.057L0.201,-0.041L0.271,-0.036L0.271,-0L0.03,-0Z" style="fill:white;fill-rule:nonzero;"/>
            </g>
            <g transform="matrix(19.2,0,0,19.2,357.371,559.69)">
                <path d="M0.06,-0.02L0.06,-0.196L0.119,-0.196L0.131,-0.081L0.144,-0.064C0.159,-0.056 0.175,-0.051 0.194,-0.047C0.213,-0.043 0.234,-0.041 0.256,-0.041C0.302,-0.041 0.339,-0.052 0.366,-0.073C0.394,-0.095 0.407,-0.124 0.407,-0.161C0.407,-0.212 0.359,-0.258 0.264,-0.299C0.253,-0.303 0.245,-0.307 0.24,-0.309C0.171,-0.339 0.126,-0.366 0.104,-0.392C0.082,-0.417 0.071,-0.451 0.071,-0.491C0.071,-0.549 0.092,-0.595 0.134,-0.63C0.176,-0.665 0.232,-0.683 0.302,-0.683C0.33,-0.683 0.358,-0.681 0.386,-0.676C0.414,-0.671 0.443,-0.664 0.472,-0.655L0.472,-0.5L0.42,-0.5L0.405,-0.595L0.39,-0.612C0.377,-0.619 0.364,-0.624 0.349,-0.628C0.334,-0.631 0.317,-0.633 0.3,-0.633C0.258,-0.633 0.225,-0.622 0.201,-0.6C0.176,-0.579 0.164,-0.549 0.164,-0.512C0.164,-0.485 0.173,-0.463 0.19,-0.445C0.207,-0.427 0.245,-0.406 0.304,-0.381C0.31,-0.379 0.318,-0.375 0.329,-0.371C0.387,-0.348 0.429,-0.324 0.455,-0.299C0.47,-0.285 0.481,-0.268 0.488,-0.25C0.495,-0.231 0.499,-0.211 0.499,-0.189C0.499,-0.129 0.475,-0.08 0.428,-0.043C0.381,-0.006 0.318,0.012 0.24,0.012C0.205,0.012 0.173,0.009 0.142,0.004C0.111,-0.002 0.084,-0.01 0.06,-0.02Z" style="fill:white;fill-rule:nonzero;"/>
            </g>
            <g transform="matrix(19.2,0,0,19.2,368.049,559.69)">
                <path d="M0.425,-0.042C0.397,-0.026 0.369,-0.014 0.342,-0.005C0.315,0.003 0.289,0.007 0.262,0.007C0.194,0.007 0.14,-0.016 0.099,-0.061C0.058,-0.107 0.037,-0.167 0.037,-0.241C0.037,-0.315 0.059,-0.375 0.103,-0.422C0.147,-0.468 0.204,-0.491 0.274,-0.491C0.32,-0.491 0.357,-0.482 0.384,-0.465C0.41,-0.447 0.424,-0.423 0.424,-0.393C0.424,-0.377 0.419,-0.364 0.409,-0.354C0.399,-0.345 0.385,-0.34 0.368,-0.34C0.361,-0.34 0.353,-0.341 0.346,-0.344C0.338,-0.346 0.331,-0.35 0.323,-0.355L0.323,-0.437C0.315,-0.442 0.307,-0.445 0.299,-0.448C0.291,-0.45 0.283,-0.451 0.275,-0.451C0.231,-0.451 0.195,-0.433 0.168,-0.396C0.141,-0.359 0.128,-0.31 0.128,-0.248C0.128,-0.187 0.143,-0.139 0.174,-0.104C0.204,-0.069 0.245,-0.052 0.298,-0.052C0.32,-0.052 0.341,-0.055 0.362,-0.062C0.383,-0.069 0.404,-0.08 0.425,-0.094L0.425,-0.042Z" style="fill:white;fill-rule:nonzero;"/>
            </g>
            <g transform="matrix(19.2,0,0,19.2,376.609,559.69)">
                <path d="M0.15,-0.486L0.189,-0.486L0.189,-0.057L0.206,-0.041L0.26,-0.036L0.26,-0L0.035,-0L0.035,-0.036L0.088,-0.041L0.105,-0.057L0.105,-0.419L0.035,-0.419L0.035,-0.45L0.15,-0.486ZM0.154,-0.708C0.17,-0.708 0.184,-0.702 0.195,-0.691C0.206,-0.68 0.212,-0.666 0.212,-0.65C0.212,-0.634 0.206,-0.62 0.195,-0.609C0.184,-0.598 0.17,-0.593 0.154,-0.593C0.138,-0.593 0.124,-0.598 0.113,-0.609C0.102,-0.62 0.096,-0.634 0.096,-0.65C0.096,-0.666 0.102,-0.68 0.113,-0.691C0.124,-0.702 0.138,-0.708 0.154,-0.708Z" style="fill:white;fill-rule:nonzero;"/>
            </g>
            <g transform="matrix(19.2,0,0,19.2,381.981,559.69)">
                <path d="M0.359,-0.305L0.359,-0.321C0.359,-0.361 0.35,-0.392 0.332,-0.414C0.315,-0.435 0.289,-0.446 0.255,-0.446C0.222,-0.446 0.193,-0.433 0.169,-0.406C0.144,-0.379 0.131,-0.346 0.128,-0.305L0.359,-0.305ZM0.448,-0.106L0.448,-0.051C0.419,-0.031 0.388,-0.016 0.356,-0.006C0.324,0.004 0.292,0.009 0.26,0.009C0.194,0.009 0.14,-0.014 0.099,-0.059C0.058,-0.105 0.037,-0.164 0.037,-0.237C0.037,-0.312 0.059,-0.373 0.102,-0.42C0.145,-0.468 0.2,-0.491 0.268,-0.491C0.323,-0.491 0.367,-0.474 0.4,-0.438C0.432,-0.403 0.448,-0.355 0.448,-0.294C0.448,-0.286 0.448,-0.28 0.448,-0.275C0.448,-0.271 0.447,-0.267 0.447,-0.263L0.123,-0.263L0.123,-0.252C0.123,-0.189 0.138,-0.139 0.168,-0.103C0.199,-0.066 0.24,-0.048 0.291,-0.048C0.315,-0.048 0.339,-0.053 0.365,-0.062C0.391,-0.071 0.418,-0.086 0.448,-0.106Z" style="fill:white;fill-rule:nonzero;"/>
            </g>
            <g transform="matrix(19.2,0,0,19.2,391.412,559.69)">
                <path d="M0.03,-0L0.03,-0.036L0.084,-0.041L0.101,-0.057L0.101,-0.419L0.03,-0.419L0.03,-0.45L0.146,-0.486L0.184,-0.486L0.184,-0.431C0.224,-0.453 0.256,-0.469 0.281,-0.478C0.305,-0.487 0.327,-0.491 0.345,-0.491C0.389,-0.491 0.422,-0.478 0.445,-0.452C0.468,-0.426 0.48,-0.388 0.48,-0.339L0.48,-0.057L0.497,-0.041L0.551,-0.036L0.551,-0L0.332,-0L0.332,-0.036L0.38,-0.041L0.397,-0.057L0.397,-0.322C0.397,-0.359 0.389,-0.386 0.374,-0.401C0.358,-0.417 0.332,-0.425 0.296,-0.425C0.28,-0.425 0.263,-0.422 0.244,-0.417C0.226,-0.411 0.206,-0.403 0.184,-0.392L0.184,-0.057L0.201,-0.041L0.249,-0.036L0.249,-0L0.03,-0Z" style="fill:white;fill-rule:nonzero;"/>
            </g>
            <g transform="matrix(19.2,0,0,19.2,402.315,559.69)">
                <path d="M0.425,-0.042C0.397,-0.026 0.369,-0.014 0.342,-0.005C0.315,0.003 0.289,0.007 0.262,0.007C0.194,0.007 0.14,-0.016 0.099,-0.061C0.058,-0.107 0.037,-0.167 0.037,-0.241C0.037,-0.315 0.059,-0.375 0.103,-0.422C0.147,-0.468 0.204,-0.491 0.274,-0.491C0.32,-0.491 0.357,-0.482 0.384,-0.465C0.41,-0.447 0.424,-0.423 0.424,-0.393C0.424,-0.377 0.419,-0.364 0.409,-0.354C0.399,-0.345 0.385,-0.34 0.368,-0.34C0.361,-0.34 0.353,-0.341 0.346,-0.344C0.338,-0.346 0.331,-0.35 0.323,-0.355L0.323,-0.437C0.315,-0.442 0.307,-0.445 0.299,-0.448C0.291,-0.45 0.283,-0.451 0.275,-0.451C0.231,-0.451 0.195,-0.433 0.168,-0.396C0.141,-0.359 0.128,-0.31 0.128,-0.248C0.128,-0.187 0.143,-0.139 0.174,-0.104C0.204,-0.069 0.245,-0.052 0.298,-0.052C0.32,-0.052 0.341,-0.055 0.362,-0.062C0.383,-0.069 0.404,-0.08 0.425,-0.094L0.425,-0.042Z" style="fill:white;fill-rule:nonzero;"/>
            </g>
            <g transform="matrix(19.2,0,0,19.2,410.874,559.69)">
                <path d="M0.359,-0.305L0.359,-0.321C0.359,-0.361 0.35,-0.392 0.332,-0.414C0.315,-0.435 0.289,-0.446 0.255,-0.446C0.222,-0.446 0.193,-0.433 0.169,-0.406C0.144,-0.379 0.131,-0.346 0.128,-0.305L0.359,-0.305ZM0.448,-0.106L0.448,-0.051C0.419,-0.031 0.388,-0.016 0.356,-0.006C0.324,0.004 0.292,0.009 0.26,0.009C0.194,0.009 0.14,-0.014 0.099,-0.059C0.058,-0.105 0.037,-0.164 0.037,-0.237C0.037,-0.312 0.059,-0.373 0.102,-0.42C0.145,-0.468 0.2,-0.491 0.268,-0.491C0.323,-0.491 0.367,-0.474 0.4,-0.438C0.432,-0.403 0.448,-0.355 0.448,-0.294C0.448,-0.286 0.448,-0.28 0.448,-0.275C0.448,-0.271 0.447,-0.267 0.447,-0.263L0.123,-0.263L0.123,-0.252C0.123,-0.189 0.138,-0.139 0.168,-0.103C0.199,-0.066 0.24,-0.048 0.291,-0.048C0.315,-0.048 0.339,-0.053 0.365,-0.062C0.391,-0.071 0.418,-0.086 0.448,-0.106Z" style="fill:white;fill-rule:nonzero;"/>
            </g>
        </g>
        <g transform="matrix(0.565094,0,0,0.565094,102.242,238.912)">
            <g transform="matrix(2.4993,0,0,2.4993,7.3418,414.139)">
                <path d="M100.911,39.387L86.801,39.387L86.822,60.152L67.931,60.152L67.931,84.324L77.322,84.324L77.322,117.502L25.582,117.502L25.582,84.288L34.994,84.288L35.009,60.152L15.968,60.152L15.968,39.387L1.681,39.387L1.681,1.408L100.911,1.408L100.911,39.387Z" style="fill-rule:nonzero;"/>
            </g>
            <g transform="matrix(2.4993,0,0,2.4993,7.3418,414.139)">
                <path d="M82.087,55.33L72.535,55.33L70.285,57.621L84.274,57.621L84.274,39.34L82.086,41.538L82.087,55.33ZM56.316,50.647L56.316,95.861L56.353,95.861L58.67,93.647L58.66,93.647L58.66,52.762L63.331,52.762L63.331,88.955L72.785,88.955L72.785,112.819L30.342,112.819L28.123,115.012L75.055,115.012L75.055,86.814L65.628,86.814L65.628,52.762L70.284,52.762L72.534,50.648L56.316,50.647ZM63.321,105.402L40.076,105.402L37.784,107.735L65.721,107.735L65.721,93.647L65.711,93.647L63.331,95.866L63.32,95.866L63.321,105.402ZM63.332,25.709L63.332,39.339L65.629,39.339L65.629,28.058L75.04,28.058L77.171,25.709L63.332,25.709ZM96.373,34.365L77.171,34.365L75.04,36.855L98.644,36.855L98.644,3.901L96.373,6.391L96.373,34.365ZM25.805,25.756L25.805,34.365L7.045,34.365L4.363,36.855L28.076,36.855L28.076,28.058L37.759,28.058L40.019,25.761L25.805,25.756ZM40.019,52.761L33.081,52.761L33.081,57.62L18.993,57.62L21.144,55.329L30.748,55.329L30.748,50.646L46.915,50.646L44.686,52.761L40.019,52.761Z" style="fill:rgb(204,204,204);fill-rule:nonzero;"/>
            </g>
            <g transform="matrix(2.4993,0,0,2.4993,7.3418,414.139)">
                <path d="M37.785,93.647L44.692,93.647L44.692,52.762L40.025,52.762L40.025,88.918L30.343,88.918L30.343,112.819L37.785,105.121L37.785,93.647ZM40.077,95.897L40.077,105.402L44.598,100.558L51.556,100.558L51.556,46.146L46.916,50.641L46.916,95.896L40.077,95.897ZM58.686,93.642L65.723,93.642L65.723,95.621L72.791,89.012L72.791,88.954L63.327,88.954L58.655,93.647L58.671,93.647L58.686,93.642ZM40.025,25.762L40.025,39.34L51.796,39.34L51.796,15.611L40.025,25.762ZM86.822,15.611L77.166,25.71L77.166,34.366L86.822,25.22L86.822,15.611ZM16.057,15.611L86.822,15.611L96.369,6.392L7.047,6.392L7.047,34.365L16.057,25.391L16.057,15.611ZM77.521,46.147L72.537,50.642L72.537,55.329L77.521,50.647L77.521,46.147ZM63.324,95.876L63.324,95.86L56.35,95.86L51.558,100.558L58.818,100.558L63.324,95.876ZM26.064,50.647L21.147,55.329L21.147,41.537L82.09,41.537L77.522,46.146L26.063,46.146L26.064,50.647Z" style="fill:rgb(204,0,0);fill-rule:nonzero;"/>
            </g>
            <g transform="matrix(2.4993,0,0,2.4993,7.3418,414.139)">
                <path d="M37.785,93.647L37.785,107.735L40.077,105.402L40.077,95.896L46.916,95.896L46.916,50.642L44.692,52.762L44.692,93.647L37.785,93.647ZM56.348,95.861L63.332,95.861L65.712,93.647L65.718,93.642L58.686,93.642L58.671,93.647L56.353,95.861L56.348,95.861ZM72.535,50.642L70.285,52.762L70.285,57.621L72.535,55.329L72.535,50.642ZM30.342,88.918L40.024,88.918L40.024,52.762L37.696,52.762L37.696,86.783L28.123,86.783L28.123,115.013L30.342,112.82L30.342,88.918ZM51.795,39.339L40.024,39.339L40.024,25.761L37.759,28.058L37.759,39.339L18.993,39.339L18.993,57.62L21.144,55.328L21.144,41.536L82.087,41.536L84.269,39.338L51.795,39.339ZM4.363,36.855L7.045,34.365L7.045,6.392L96.368,6.392L98.644,3.902L4.363,3.902L4.363,36.855ZM77.166,34.365L75.035,36.855L75.035,28.058L77.166,25.709L77.166,34.365Z" style="fill:white;fill-rule:nonzero;"/>
            </g>
            <g transform="matrix(2.4993,0,0,2.4993,7.3418,414.139)">
                <path d="M80.733,115.45L80.733,114.71L81.223,114.71C81.478,114.71 81.744,114.762 81.744,115.059C81.744,115.424 81.473,115.45 81.166,115.45L80.733,115.45ZM80.733,115.752L81.15,115.752L81.775,116.788L82.181,116.788L81.499,115.736C81.858,115.7 82.124,115.507 82.124,115.085C82.124,114.611 81.843,114.403 81.28,114.403L80.374,114.403L80.374,116.788L80.733,116.788L80.733,115.752ZM81.171,117.663C82.301,117.663 83.259,116.788 83.259,115.59C83.259,114.403 82.301,113.528 81.171,113.528C80.035,113.528 79.072,114.403 79.072,115.59C79.072,116.788 80.035,117.663 81.171,117.663M79.483,115.59C79.483,114.611 80.223,113.871 81.171,113.871C82.103,113.871 82.843,114.611 82.843,115.59C82.843,116.585 82.103,117.319 81.171,117.319C80.223,117.319 79.483,116.585 79.483,115.59" style="fill-rule:nonzero;"/>
            </g>
        </g>
        <g transform="matrix(2.69143,0,0,2.69143,-196.904,-848.6)">
            <g transform="matrix(19.2,0,0,19.2,176.425,540.189)">
                <path d="M0.051,-0.671L0.265,-0.671L0.265,-0.633L0.208,-0.628L0.201,-0.613L0.238,-0.142L0.486,-0.671L0.551,-0.671L0.607,-0.135L0.826,-0.613L0.818,-0.628L0.759,-0.633L0.759,-0.671L0.951,-0.671L0.951,-0.633L0.893,-0.627L0.6,-0L0.543,-0L0.484,-0.549L0.229,-0L0.166,-0L0.116,-0.61L0.099,-0.628L0.051,-0.633L0.051,-0.671Z" style="fill:white;fill-rule:nonzero;"/>
            </g>
            <g transform="matrix(19.2,0,0,19.2,193.666,540.189)">
                <path d="M0.223,-0.736L0.254,-0.736C0.248,-0.714 0.242,-0.688 0.235,-0.66C0.229,-0.631 0.222,-0.597 0.214,-0.559L0.181,-0.388C0.221,-0.42 0.257,-0.444 0.288,-0.46C0.319,-0.475 0.348,-0.483 0.373,-0.483C0.399,-0.483 0.419,-0.476 0.434,-0.461C0.449,-0.447 0.457,-0.428 0.457,-0.403C0.457,-0.393 0.456,-0.382 0.454,-0.37C0.452,-0.357 0.448,-0.338 0.443,-0.313L0.408,-0.158C0.404,-0.141 0.402,-0.128 0.4,-0.118C0.399,-0.108 0.398,-0.1 0.398,-0.093C0.398,-0.077 0.402,-0.065 0.411,-0.056C0.42,-0.047 0.433,-0.043 0.449,-0.043C0.456,-0.043 0.464,-0.044 0.474,-0.045C0.483,-0.047 0.493,-0.049 0.505,-0.052L0.505,-0.025C0.479,-0.015 0.457,-0.007 0.436,-0.002C0.416,0.003 0.398,0.006 0.385,0.006C0.36,0.006 0.341,0.001 0.33,-0.009C0.318,-0.019 0.312,-0.034 0.312,-0.055C0.312,-0.062 0.313,-0.07 0.314,-0.079C0.315,-0.088 0.317,-0.098 0.319,-0.108L0.362,-0.293C0.365,-0.306 0.368,-0.319 0.369,-0.33C0.371,-0.341 0.372,-0.35 0.372,-0.357C0.372,-0.379 0.368,-0.395 0.359,-0.406C0.35,-0.416 0.336,-0.421 0.318,-0.421C0.3,-0.421 0.278,-0.414 0.252,-0.399C0.226,-0.385 0.199,-0.365 0.17,-0.339L0.108,-0L0.023,-0L0.16,-0.67L0.066,-0.678L0.066,-0.703L0.223,-0.736Z" style="fill:white;fill-rule:nonzero;"/>
            </g>
            <g transform="matrix(19.2,0,0,19.2,204.241,540.189)">
                <path d="M0.181,-0.482L0.207,-0.482L0.135,-0.108C0.134,-0.102 0.133,-0.097 0.133,-0.093C0.132,-0.089 0.132,-0.086 0.132,-0.083C0.132,-0.07 0.136,-0.061 0.144,-0.054C0.152,-0.047 0.164,-0.044 0.18,-0.044C0.189,-0.044 0.2,-0.045 0.212,-0.048C0.224,-0.05 0.238,-0.054 0.254,-0.059L0.254,-0.028C0.226,-0.016 0.201,-0.008 0.177,-0.002C0.153,0.004 0.132,0.007 0.113,0.007C0.092,0.007 0.076,0.001 0.065,-0.01C0.054,-0.02 0.049,-0.037 0.049,-0.059C0.049,-0.065 0.049,-0.073 0.051,-0.082C0.052,-0.09 0.053,-0.1 0.055,-0.111L0.114,-0.409L0.033,-0.424L0.033,-0.45L0.181,-0.482ZM0.201,-0.704C0.215,-0.704 0.228,-0.699 0.239,-0.688C0.25,-0.677 0.255,-0.665 0.255,-0.65C0.255,-0.635 0.25,-0.623 0.239,-0.612C0.228,-0.601 0.216,-0.596 0.201,-0.596C0.186,-0.596 0.173,-0.601 0.163,-0.612C0.152,-0.622 0.147,-0.635 0.147,-0.65C0.147,-0.665 0.152,-0.678 0.163,-0.688C0.173,-0.699 0.186,-0.704 0.201,-0.704Z" style="fill:white;fill-rule:nonzero;"/>
            </g>
            <g transform="matrix(19.2,0,0,19.2,209.753,540.189)">
                <path d="M0.167,-0.579L0.213,-0.579L0.192,-0.465L0.336,-0.465L0.336,-0.422L0.184,-0.422L0.132,-0.155C0.132,-0.153 0.131,-0.149 0.13,-0.146C0.127,-0.129 0.126,-0.117 0.126,-0.111C0.126,-0.091 0.131,-0.075 0.142,-0.065C0.152,-0.054 0.167,-0.049 0.187,-0.049C0.198,-0.049 0.212,-0.051 0.227,-0.054C0.243,-0.057 0.261,-0.062 0.282,-0.069L0.282,-0.037C0.248,-0.022 0.219,-0.011 0.193,-0.004C0.167,0.003 0.146,0.007 0.128,0.007C0.1,0.007 0.079,-0.001 0.065,-0.016C0.051,-0.031 0.044,-0.053 0.044,-0.084C0.044,-0.093 0.045,-0.104 0.046,-0.115C0.047,-0.127 0.049,-0.139 0.052,-0.151L0.106,-0.422L0.044,-0.417L0.044,-0.447L0.117,-0.479L0.167,-0.579Z" style="fill:white;fill-rule:nonzero;"/>
            </g>
            <g transform="matrix(19.2,0,0,19.2,216.147,540.189)">
                <path d="M0.317,-0.443L0.303,-0.443C0.244,-0.443 0.195,-0.417 0.157,-0.366C0.119,-0.316 0.1,-0.251 0.1,-0.172C0.1,-0.132 0.107,-0.102 0.122,-0.082C0.136,-0.062 0.158,-0.052 0.187,-0.052C0.206,-0.052 0.225,-0.057 0.245,-0.068C0.264,-0.079 0.284,-0.096 0.305,-0.118L0.357,-0.382L0.317,-0.443ZM0.41,-0.482L0.462,-0.482C0.457,-0.471 0.451,-0.454 0.445,-0.429C0.438,-0.405 0.431,-0.375 0.424,-0.339L0.388,-0.162C0.385,-0.146 0.382,-0.133 0.381,-0.121C0.379,-0.109 0.378,-0.099 0.378,-0.092C0.378,-0.076 0.382,-0.065 0.391,-0.057C0.399,-0.05 0.413,-0.046 0.432,-0.046C0.436,-0.046 0.441,-0.046 0.448,-0.048C0.455,-0.049 0.468,-0.052 0.488,-0.056L0.488,-0.026C0.46,-0.014 0.436,-0.005 0.415,0C0.395,0.006 0.378,0.009 0.365,0.009C0.344,0.009 0.329,0.003 0.319,-0.01C0.309,-0.022 0.304,-0.041 0.304,-0.067L0.304,-0.075C0.277,-0.047 0.251,-0.025 0.227,-0.012C0.203,0.002 0.179,0.009 0.155,0.009C0.112,0.009 0.079,-0.007 0.054,-0.038C0.029,-0.069 0.017,-0.111 0.017,-0.166C0.017,-0.199 0.021,-0.231 0.03,-0.262C0.039,-0.293 0.052,-0.322 0.069,-0.351C0.095,-0.393 0.127,-0.426 0.167,-0.448C0.207,-0.471 0.251,-0.482 0.3,-0.482C0.314,-0.482 0.329,-0.48 0.345,-0.476C0.36,-0.473 0.375,-0.467 0.39,-0.46L0.41,-0.482Z" style="fill:white;fill-rule:nonzero;"/>
            </g>
            <g transform="matrix(19.2,0,0,19.2,226.225,540.189)">
                <path d="M0.307,-0.36L0.249,-0.436L0.244,-0.436C0.202,-0.436 0.166,-0.412 0.137,-0.365C0.109,-0.317 0.094,-0.258 0.094,-0.186C0.094,-0.143 0.103,-0.11 0.121,-0.086C0.138,-0.062 0.163,-0.05 0.194,-0.05C0.218,-0.05 0.243,-0.057 0.27,-0.072C0.297,-0.086 0.324,-0.106 0.35,-0.133L0.35,-0.087C0.32,-0.056 0.289,-0.032 0.257,-0.015C0.225,0.001 0.194,0.01 0.163,0.01C0.118,0.01 0.082,-0.007 0.055,-0.04C0.029,-0.072 0.015,-0.117 0.015,-0.172C0.015,-0.216 0.022,-0.257 0.036,-0.296C0.051,-0.335 0.071,-0.369 0.098,-0.398C0.123,-0.426 0.151,-0.447 0.183,-0.462C0.214,-0.477 0.245,-0.485 0.277,-0.485C0.304,-0.485 0.326,-0.478 0.344,-0.465C0.361,-0.451 0.37,-0.435 0.37,-0.415C0.37,-0.399 0.364,-0.386 0.353,-0.376C0.341,-0.366 0.326,-0.361 0.307,-0.36Z" style="fill:white;fill-rule:nonzero;"/>
            </g>
            <g transform="matrix(19.2,0,0,19.2,233.791,540.189)">
                <path d="M0.177,-0.482L0.197,-0.482L0.165,-0.345C0.196,-0.389 0.227,-0.423 0.258,-0.446C0.289,-0.47 0.317,-0.482 0.343,-0.482C0.36,-0.482 0.373,-0.477 0.384,-0.468C0.394,-0.458 0.399,-0.445 0.399,-0.43C0.399,-0.411 0.393,-0.395 0.381,-0.383C0.368,-0.371 0.352,-0.365 0.332,-0.365L0.325,-0.365L0.299,-0.419C0.255,-0.402 0.221,-0.38 0.199,-0.353C0.177,-0.326 0.162,-0.286 0.153,-0.235L0.112,-0L0.028,-0L0.111,-0.409L0.029,-0.424L0.029,-0.449L0.177,-0.482Z" style="fill:white;fill-rule:nonzero;"/>
            </g>
            <g transform="matrix(19.2,0,0,19.2,241.431,540.189)">
                <path d="M0.105,-0.222C0.104,-0.215 0.103,-0.208 0.103,-0.2C0.102,-0.192 0.102,-0.184 0.102,-0.176C0.102,-0.136 0.111,-0.104 0.13,-0.081C0.148,-0.058 0.174,-0.046 0.206,-0.046C0.229,-0.046 0.255,-0.053 0.282,-0.067C0.31,-0.081 0.338,-0.101 0.366,-0.128L0.366,-0.081C0.335,-0.051 0.304,-0.029 0.271,-0.014C0.238,0.001 0.205,0.009 0.172,0.009C0.124,0.009 0.087,-0.007 0.061,-0.039C0.034,-0.071 0.021,-0.116 0.021,-0.173C0.021,-0.215 0.029,-0.256 0.044,-0.296C0.06,-0.336 0.082,-0.371 0.11,-0.4C0.134,-0.425 0.161,-0.445 0.191,-0.46C0.221,-0.475 0.249,-0.482 0.275,-0.482C0.306,-0.482 0.332,-0.473 0.35,-0.455C0.369,-0.437 0.378,-0.413 0.378,-0.383C0.378,-0.339 0.354,-0.302 0.306,-0.273C0.257,-0.245 0.191,-0.228 0.105,-0.222ZM0.11,-0.256C0.168,-0.259 0.215,-0.273 0.252,-0.298C0.288,-0.322 0.306,-0.352 0.306,-0.386C0.306,-0.402 0.301,-0.414 0.291,-0.425C0.281,-0.435 0.269,-0.44 0.254,-0.44C0.223,-0.44 0.195,-0.424 0.169,-0.391C0.143,-0.358 0.124,-0.313 0.11,-0.256Z" style="fill:white;fill-rule:nonzero;"/>
            </g>
            <g transform="matrix(19.2,0,0,19.2,254.903,540.189)">
                <path d="M0.622,-0.649L0.594,-0.495L0.552,-0.495L0.552,-0.591L0.544,-0.61C0.527,-0.619 0.51,-0.625 0.493,-0.63C0.476,-0.634 0.457,-0.636 0.438,-0.636C0.405,-0.636 0.374,-0.63 0.343,-0.619C0.313,-0.607 0.286,-0.59 0.261,-0.568C0.222,-0.532 0.191,-0.487 0.169,-0.432C0.147,-0.377 0.136,-0.317 0.136,-0.253C0.136,-0.184 0.154,-0.13 0.191,-0.092C0.227,-0.054 0.278,-0.035 0.344,-0.035C0.358,-0.035 0.372,-0.036 0.386,-0.039C0.4,-0.041 0.415,-0.044 0.43,-0.049L0.449,-0.066L0.493,-0.181L0.536,-0.181L0.509,-0.023C0.474,-0.012 0.44,-0.003 0.407,0.003C0.373,0.009 0.341,0.012 0.31,0.012C0.228,0.012 0.162,-0.013 0.114,-0.063C0.065,-0.113 0.041,-0.181 0.041,-0.265C0.041,-0.33 0.055,-0.391 0.082,-0.449C0.109,-0.507 0.147,-0.556 0.196,-0.597C0.231,-0.625 0.269,-0.646 0.31,-0.661C0.352,-0.676 0.395,-0.683 0.441,-0.683C0.469,-0.683 0.498,-0.68 0.529,-0.675C0.559,-0.669 0.59,-0.66 0.622,-0.649Z" style="fill:white;fill-rule:nonzero;"/>
            </g>
            <g transform="matrix(19.2,0,0,19.2,266.5,540.189)">
                <path d="M0.266,-0.444C0.222,-0.444 0.184,-0.419 0.153,-0.368C0.122,-0.318 0.107,-0.255 0.107,-0.18C0.107,-0.133 0.115,-0.097 0.133,-0.071C0.15,-0.045 0.174,-0.032 0.204,-0.032C0.248,-0.032 0.286,-0.057 0.317,-0.108C0.348,-0.158 0.364,-0.22 0.364,-0.293C0.364,-0.341 0.355,-0.378 0.338,-0.405C0.321,-0.431 0.297,-0.444 0.266,-0.444ZM0.279,-0.483C0.331,-0.483 0.373,-0.465 0.403,-0.43C0.434,-0.395 0.449,-0.347 0.449,-0.287C0.449,-0.248 0.442,-0.21 0.428,-0.173C0.414,-0.136 0.394,-0.102 0.368,-0.072C0.345,-0.045 0.318,-0.025 0.289,-0.011C0.259,0.002 0.227,0.009 0.192,0.009C0.14,0.009 0.099,-0.008 0.068,-0.043C0.037,-0.077 0.022,-0.123 0.022,-0.181C0.022,-0.221 0.029,-0.26 0.043,-0.299C0.057,-0.338 0.077,-0.371 0.102,-0.4C0.126,-0.427 0.153,-0.448 0.183,-0.462C0.213,-0.476 0.245,-0.483 0.279,-0.483Z" style="fill:white;fill-rule:nonzero;"/>
            </g>
            <g transform="matrix(19.2,0,0,19.2,276.138,540.189)">
                <path d="M0.212,-0.736L0.239,-0.736C0.236,-0.72 0.233,-0.706 0.231,-0.694C0.229,-0.683 0.228,-0.675 0.227,-0.671L0.126,-0.168C0.122,-0.15 0.12,-0.135 0.118,-0.12C0.116,-0.106 0.115,-0.095 0.115,-0.087C0.115,-0.072 0.12,-0.06 0.129,-0.052C0.138,-0.044 0.152,-0.04 0.17,-0.04C0.178,-0.04 0.187,-0.041 0.199,-0.044C0.211,-0.047 0.225,-0.051 0.241,-0.056L0.241,-0.025C0.215,-0.014 0.19,-0.005 0.167,0C0.145,0.006 0.125,0.009 0.108,0.009C0.083,0.009 0.065,0.003 0.053,-0.01C0.041,-0.022 0.035,-0.04 0.035,-0.065C0.035,-0.072 0.037,-0.086 0.04,-0.105C0.043,-0.125 0.047,-0.15 0.053,-0.18L0.149,-0.67L0.06,-0.68L0.06,-0.706L0.212,-0.736Z" style="fill:white;fill-rule:nonzero;"/>
            </g>
            <g transform="matrix(19.2,0,0,19.2,281.416,540.189)">
                <path d="M0.212,-0.736L0.239,-0.736C0.236,-0.72 0.233,-0.706 0.231,-0.694C0.229,-0.683 0.228,-0.675 0.227,-0.671L0.126,-0.168C0.122,-0.15 0.12,-0.135 0.118,-0.12C0.116,-0.106 0.115,-0.095 0.115,-0.087C0.115,-0.072 0.12,-0.06 0.129,-0.052C0.138,-0.044 0.152,-0.04 0.17,-0.04C0.178,-0.04 0.187,-0.041 0.199,-0.044C0.211,-0.047 0.225,-0.051 0.241,-0.056L0.241,-0.025C0.215,-0.014 0.19,-0.005 0.167,0C0.145,0.006 0.125,0.009 0.108,0.009C0.083,0.009 0.065,0.003 0.053,-0.01C0.041,-0.022 0.035,-0.04 0.035,-0.065C0.035,-0.072 0.037,-0.086 0.04,-0.105C0.043,-0.125 0.047,-0.15 0.053,-0.18L0.149,-0.67L0.06,-0.68L0.06,-0.706L0.212,-0.736Z" style="fill:white;fill-rule:nonzero;"/>
            </g>
            <g transform="matrix(19.2,0,0,19.2,286.694,540.189)">
                <path d="M0.105,-0.222C0.104,-0.215 0.103,-0.208 0.103,-0.2C0.102,-0.192 0.102,-0.184 0.102,-0.176C0.102,-0.136 0.111,-0.104 0.13,-0.081C0.148,-0.058 0.174,-0.046 0.206,-0.046C0.229,-0.046 0.255,-0.053 0.282,-0.067C0.31,-0.081 0.338,-0.101 0.366,-0.128L0.366,-0.081C0.335,-0.051 0.304,-0.029 0.271,-0.014C0.238,0.001 0.205,0.009 0.172,0.009C0.124,0.009 0.087,-0.007 0.061,-0.039C0.034,-0.071 0.021,-0.116 0.021,-0.173C0.021,-0.215 0.029,-0.256 0.044,-0.296C0.06,-0.336 0.082,-0.371 0.11,-0.4C0.134,-0.425 0.161,-0.445 0.191,-0.46C0.221,-0.475 0.249,-0.482 0.275,-0.482C0.306,-0.482 0.332,-0.473 0.35,-0.455C0.369,-0.437 0.378,-0.413 0.378,-0.383C0.378,-0.339 0.354,-0.302 0.306,-0.273C0.257,-0.245 0.191,-0.228 0.105,-0.222ZM0.11,-0.256C0.168,-0.259 0.215,-0.273 0.252,-0.298C0.288,-0.322 0.306,-0.352 0.306,-0.386C0.306,-0.402 0.301,-0.414 0.291,-0.425C0.281,-0.435 0.269,-0.44 0.254,-0.44C0.223,-0.44 0.195,-0.424 0.169,-0.391C0.143,-0.358 0.124,-0.313 0.11,-0.256Z" style="fill:white;fill-rule:nonzero;"/>
            </g>
            <g transform="matrix(19.2,0,0,19.2,294.831,540.189)">
                <path d="M0.139,-0.034C0.109,-0.027 0.086,-0.015 0.07,0.002C0.055,0.018 0.047,0.04 0.047,0.065C0.047,0.097 0.059,0.124 0.085,0.145C0.11,0.165 0.142,0.176 0.182,0.176C0.223,0.176 0.256,0.167 0.282,0.151C0.309,0.134 0.322,0.113 0.322,0.089C0.322,0.076 0.317,0.064 0.308,0.053C0.299,0.043 0.285,0.033 0.266,0.025L0.139,-0.034ZM0.311,-0.355C0.311,-0.384 0.305,-0.407 0.293,-0.422C0.282,-0.438 0.265,-0.446 0.243,-0.446C0.213,-0.446 0.186,-0.429 0.163,-0.396C0.14,-0.363 0.128,-0.323 0.128,-0.278C0.128,-0.251 0.134,-0.231 0.146,-0.216C0.158,-0.201 0.174,-0.194 0.195,-0.194C0.225,-0.194 0.252,-0.21 0.276,-0.242C0.299,-0.274 0.311,-0.312 0.311,-0.355ZM0.337,-0.458L0.48,-0.458L0.48,-0.415L0.377,-0.415C0.381,-0.404 0.384,-0.393 0.387,-0.382C0.389,-0.371 0.39,-0.36 0.39,-0.349C0.39,-0.296 0.371,-0.251 0.334,-0.215C0.297,-0.178 0.251,-0.16 0.198,-0.16C0.195,-0.16 0.191,-0.16 0.187,-0.16C0.183,-0.161 0.179,-0.161 0.175,-0.161C0.171,-0.153 0.167,-0.144 0.165,-0.135C0.163,-0.127 0.162,-0.118 0.162,-0.108L0.162,-0.102L0.321,-0.03C0.347,-0.018 0.367,-0.004 0.38,0.013C0.392,0.029 0.399,0.048 0.399,0.069C0.399,0.108 0.375,0.143 0.328,0.173C0.28,0.203 0.224,0.218 0.158,0.218C0.1,0.218 0.054,0.206 0.02,0.182C-0.014,0.158 -0.031,0.126 -0.031,0.085C-0.031,0.054 -0.02,0.028 0,0.006C0.021,-0.015 0.055,-0.036 0.102,-0.054C0.102,-0.056 0.101,-0.058 0.101,-0.061C0.101,-0.063 0.101,-0.066 0.101,-0.071C0.101,-0.087 0.104,-0.103 0.111,-0.118C0.117,-0.134 0.127,-0.15 0.141,-0.168C0.111,-0.18 0.089,-0.196 0.073,-0.217C0.057,-0.238 0.049,-0.262 0.049,-0.289C0.049,-0.343 0.068,-0.389 0.105,-0.427C0.143,-0.464 0.189,-0.483 0.244,-0.483C0.259,-0.483 0.274,-0.481 0.289,-0.477C0.304,-0.473 0.32,-0.466 0.337,-0.458Z" style="fill:white;fill-rule:nonzero;"/>
            </g>
            <g transform="matrix(19.2,0,0,19.2,304.066,540.189)">
                <path d="M0.105,-0.222C0.104,-0.215 0.103,-0.208 0.103,-0.2C0.102,-0.192 0.102,-0.184 0.102,-0.176C0.102,-0.136 0.111,-0.104 0.13,-0.081C0.148,-0.058 0.174,-0.046 0.206,-0.046C0.229,-0.046 0.255,-0.053 0.282,-0.067C0.31,-0.081 0.338,-0.101 0.366,-0.128L0.366,-0.081C0.335,-0.051 0.304,-0.029 0.271,-0.014C0.238,0.001 0.205,0.009 0.172,0.009C0.124,0.009 0.087,-0.007 0.061,-0.039C0.034,-0.071 0.021,-0.116 0.021,-0.173C0.021,-0.215 0.029,-0.256 0.044,-0.296C0.06,-0.336 0.082,-0.371 0.11,-0.4C0.134,-0.425 0.161,-0.445 0.191,-0.46C0.221,-0.475 0.249,-0.482 0.275,-0.482C0.306,-0.482 0.332,-0.473 0.35,-0.455C0.369,-0.437 0.378,-0.413 0.378,-0.383C0.378,-0.339 0.354,-0.302 0.306,-0.273C0.257,-0.245 0.191,-0.228 0.105,-0.222ZM0.11,-0.256C0.168,-0.259 0.215,-0.273 0.252,-0.298C0.288,-0.322 0.306,-0.352 0.306,-0.386C0.306,-0.402 0.301,-0.414 0.291,-0.425C0.281,-0.435 0.269,-0.44 0.254,-0.44C0.223,-0.44 0.195,-0.424 0.169,-0.391C0.143,-0.358 0.124,-0.313 0.11,-0.256Z" style="fill:white;fill-rule:nonzero;"/>
            </g>
            <g transform="matrix(19.2,0,0,19.2,317.538,540.189)">
                <path d="M0.266,-0.444C0.222,-0.444 0.184,-0.419 0.153,-0.368C0.122,-0.318 0.107,-0.255 0.107,-0.18C0.107,-0.133 0.115,-0.097 0.133,-0.071C0.15,-0.045 0.174,-0.032 0.204,-0.032C0.248,-0.032 0.286,-0.057 0.317,-0.108C0.348,-0.158 0.364,-0.22 0.364,-0.293C0.364,-0.341 0.355,-0.378 0.338,-0.405C0.321,-0.431 0.297,-0.444 0.266,-0.444ZM0.279,-0.483C0.331,-0.483 0.373,-0.465 0.403,-0.43C0.434,-0.395 0.449,-0.347 0.449,-0.287C0.449,-0.248 0.442,-0.21 0.428,-0.173C0.414,-0.136 0.394,-0.102 0.368,-0.072C0.345,-0.045 0.318,-0.025 0.289,-0.011C0.259,0.002 0.227,0.009 0.192,0.009C0.14,0.009 0.099,-0.008 0.068,-0.043C0.037,-0.077 0.022,-0.123 0.022,-0.181C0.022,-0.221 0.029,-0.26 0.043,-0.299C0.057,-0.338 0.077,-0.371 0.102,-0.4C0.126,-0.427 0.153,-0.448 0.183,-0.462C0.213,-0.476 0.245,-0.483 0.279,-0.483Z" style="fill:white;fill-rule:nonzero;"/>
            </g>
            <g transform="matrix(19.2,0,0,19.2,327.175,540.189)">
                <path d="M0.354,-0.621L0.272,-0.688C0.253,-0.676 0.236,-0.65 0.221,-0.611C0.206,-0.572 0.193,-0.52 0.182,-0.455L0.323,-0.455L0.323,-0.41L0.174,-0.41L0.134,-0.126C0.126,-0.07 0.116,-0.024 0.104,0.011C0.093,0.046 0.078,0.077 0.059,0.103C0.033,0.139 0.007,0.167 -0.02,0.187C-0.047,0.206 -0.072,0.216 -0.097,0.216C-0.113,0.216 -0.126,0.211 -0.136,0.201C-0.146,0.192 -0.151,0.179 -0.151,0.163C-0.151,0.155 -0.149,0.148 -0.145,0.141C-0.142,0.134 -0.136,0.128 -0.129,0.123L-0.025,0.15C-0.006,0.13 0.009,0.102 0.021,0.064C0.033,0.027 0.045,-0.035 0.058,-0.123L0.1,-0.41L0.033,-0.403L0.034,-0.436L0.11,-0.467C0.126,-0.549 0.153,-0.614 0.19,-0.661C0.228,-0.708 0.271,-0.732 0.32,-0.732C0.343,-0.732 0.363,-0.726 0.379,-0.714C0.395,-0.703 0.403,-0.689 0.403,-0.673C0.403,-0.66 0.399,-0.649 0.39,-0.639C0.381,-0.63 0.369,-0.624 0.354,-0.621Z" style="fill:white;fill-rule:nonzero;"/>
            </g>
            <g transform="matrix(19.2,0,0,19.2,338.116,540.189)">
                <path d="M0.088,-0.671L0.553,-0.671L0.525,-0.525L0.477,-0.525L0.477,-0.61L0.466,-0.625L0.251,-0.625L0.202,-0.372L0.354,-0.372L0.372,-0.386L0.394,-0.459L0.437,-0.459L0.395,-0.239L0.354,-0.239L0.358,-0.311L0.346,-0.325L0.193,-0.325L0.139,-0.046L0.394,-0.046L0.412,-0.062L0.446,-0.163L0.492,-0.163L0.46,-0L-0.024,-0L-0.024,-0.038L0.039,-0.044L0.056,-0.058L0.163,-0.613L0.152,-0.628L0.088,-0.633L0.088,-0.671Z" style="fill:white;fill-rule:nonzero;"/>
            </g>
            <g transform="matrix(19.2,0,0,19.2,348.597,540.189)">
                <path d="M0.181,-0.482L0.206,-0.482L0.188,-0.386C0.23,-0.419 0.266,-0.443 0.297,-0.459C0.329,-0.474 0.357,-0.482 0.382,-0.482C0.408,-0.482 0.428,-0.475 0.443,-0.46C0.458,-0.446 0.466,-0.427 0.466,-0.402C0.466,-0.393 0.465,-0.382 0.463,-0.37C0.461,-0.358 0.458,-0.339 0.452,-0.313L0.418,-0.158C0.418,-0.156 0.417,-0.153 0.416,-0.148C0.41,-0.12 0.407,-0.101 0.407,-0.092C0.407,-0.076 0.412,-0.064 0.421,-0.056C0.43,-0.047 0.442,-0.043 0.459,-0.043C0.466,-0.043 0.474,-0.044 0.483,-0.045C0.492,-0.047 0.502,-0.049 0.514,-0.052L0.514,-0.024C0.488,-0.014 0.465,-0.006 0.445,-0.001C0.425,0.003 0.408,0.006 0.394,0.006C0.37,0.006 0.351,0.001 0.339,-0.009C0.327,-0.019 0.321,-0.034 0.321,-0.054C0.321,-0.06 0.322,-0.068 0.323,-0.077C0.324,-0.086 0.326,-0.097 0.329,-0.108L0.372,-0.293C0.375,-0.305 0.377,-0.317 0.379,-0.328C0.38,-0.339 0.381,-0.348 0.381,-0.357C0.381,-0.379 0.377,-0.395 0.368,-0.405C0.36,-0.415 0.346,-0.42 0.327,-0.42C0.309,-0.42 0.286,-0.413 0.26,-0.398C0.235,-0.384 0.208,-0.364 0.179,-0.338L0.117,-0L0.032,-0L0.115,-0.409L0.033,-0.424L0.033,-0.449L0.181,-0.482Z" style="fill:white;fill-rule:nonzero;"/>
            </g>
            <g transform="matrix(19.2,0,0,19.2,359.275,540.189)">
                <path d="M0.139,-0.034C0.109,-0.027 0.086,-0.015 0.07,0.002C0.055,0.018 0.047,0.04 0.047,0.065C0.047,0.097 0.059,0.124 0.085,0.145C0.11,0.165 0.142,0.176 0.182,0.176C0.223,0.176 0.256,0.167 0.282,0.151C0.309,0.134 0.322,0.113 0.322,0.089C0.322,0.076 0.317,0.064 0.308,0.053C0.299,0.043 0.285,0.033 0.266,0.025L0.139,-0.034ZM0.311,-0.355C0.311,-0.384 0.305,-0.407 0.293,-0.422C0.282,-0.438 0.265,-0.446 0.243,-0.446C0.213,-0.446 0.186,-0.429 0.163,-0.396C0.14,-0.363 0.128,-0.323 0.128,-0.278C0.128,-0.251 0.134,-0.231 0.146,-0.216C0.158,-0.201 0.174,-0.194 0.195,-0.194C0.225,-0.194 0.252,-0.21 0.276,-0.242C0.299,-0.274 0.311,-0.312 0.311,-0.355ZM0.337,-0.458L0.48,-0.458L0.48,-0.415L0.377,-0.415C0.381,-0.404 0.384,-0.393 0.387,-0.382C0.389,-0.371 0.39,-0.36 0.39,-0.349C0.39,-0.296 0.371,-0.251 0.334,-0.215C0.297,-0.178 0.251,-0.16 0.198,-0.16C0.195,-0.16 0.191,-0.16 0.187,-0.16C0.183,-0.161 0.179,-0.161 0.175,-0.161C0.171,-0.153 0.167,-0.144 0.165,-0.135C0.163,-0.127 0.162,-0.118 0.162,-0.108L0.162,-0.102L0.321,-0.03C0.347,-0.018 0.367,-0.004 0.38,0.013C0.392,0.029 0.399,0.048 0.399,0.069C0.399,0.108 0.375,0.143 0.328,0.173C0.28,0.203 0.224,0.218 0.158,0.218C0.1,0.218 0.054,0.206 0.02,0.182C-0.014,0.158 -0.031,0.126 -0.031,0.085C-0.031,0.054 -0.02,0.028 0,0.006C0.021,-0.015 0.055,-0.036 0.102,-0.054C0.102,-0.056 0.101,-0.058 0.101,-0.061C0.101,-0.063 0.101,-0.066 0.101,-0.071C0.101,-0.087 0.104,-0.103 0.111,-0.118C0.117,-0.134 0.127,-0.15 0.141,-0.168C0.111,-0.18 0.089,-0.196 0.073,-0.217C0.057,-0.238 0.049,-0.262 0.049,-0.289C0.049,-0.343 0.068,-0.389 0.105,-0.427C0.143,-0.464 0.189,-0.483 0.244,-0.483C0.259,-0.483 0.274,-0.481 0.289,-0.477C0.304,-0.473 0.32,-0.466 0.337,-0.458Z" style="fill:white;fill-rule:nonzero;"/>
            </g>
            <g transform="matrix(19.2,0,0,19.2,368.51,540.189)">
                <path d="M0.181,-0.482L0.207,-0.482L0.135,-0.108C0.134,-0.102 0.133,-0.097 0.133,-0.093C0.132,-0.089 0.132,-0.086 0.132,-0.083C0.132,-0.07 0.136,-0.061 0.144,-0.054C0.152,-0.047 0.164,-0.044 0.18,-0.044C0.189,-0.044 0.2,-0.045 0.212,-0.048C0.224,-0.05 0.238,-0.054 0.254,-0.059L0.254,-0.028C0.226,-0.016 0.201,-0.008 0.177,-0.002C0.153,0.004 0.132,0.007 0.113,0.007C0.092,0.007 0.076,0.001 0.065,-0.01C0.054,-0.02 0.049,-0.037 0.049,-0.059C0.049,-0.065 0.049,-0.073 0.051,-0.082C0.052,-0.09 0.053,-0.1 0.055,-0.111L0.114,-0.409L0.033,-0.424L0.033,-0.45L0.181,-0.482ZM0.201,-0.704C0.215,-0.704 0.228,-0.699 0.239,-0.688C0.25,-0.677 0.255,-0.665 0.255,-0.65C0.255,-0.635 0.25,-0.623 0.239,-0.612C0.228,-0.601 0.216,-0.596 0.201,-0.596C0.186,-0.596 0.173,-0.601 0.163,-0.612C0.152,-0.622 0.147,-0.635 0.147,-0.65C0.147,-0.665 0.152,-0.678 0.163,-0.688C0.173,-0.699 0.186,-0.704 0.201,-0.704Z" style="fill:white;fill-rule:nonzero;"/>
            </g>
            <g transform="matrix(19.2,0,0,19.2,374.022,540.189)">
                <path d="M0.181,-0.482L0.206,-0.482L0.188,-0.386C0.23,-0.419 0.266,-0.443 0.297,-0.459C0.329,-0.474 0.357,-0.482 0.382,-0.482C0.408,-0.482 0.428,-0.475 0.443,-0.46C0.458,-0.446 0.466,-0.427 0.466,-0.402C0.466,-0.393 0.465,-0.382 0.463,-0.37C0.461,-0.358 0.458,-0.339 0.452,-0.313L0.418,-0.158C0.418,-0.156 0.417,-0.153 0.416,-0.148C0.41,-0.12 0.407,-0.101 0.407,-0.092C0.407,-0.076 0.412,-0.064 0.421,-0.056C0.43,-0.047 0.442,-0.043 0.459,-0.043C0.466,-0.043 0.474,-0.044 0.483,-0.045C0.492,-0.047 0.502,-0.049 0.514,-0.052L0.514,-0.024C0.488,-0.014 0.465,-0.006 0.445,-0.001C0.425,0.003 0.408,0.006 0.394,0.006C0.37,0.006 0.351,0.001 0.339,-0.009C0.327,-0.019 0.321,-0.034 0.321,-0.054C0.321,-0.06 0.322,-0.068 0.323,-0.077C0.324,-0.086 0.326,-0.097 0.329,-0.108L0.372,-0.293C0.375,-0.305 0.377,-0.317 0.379,-0.328C0.38,-0.339 0.381,-0.348 0.381,-0.357C0.381,-0.379 0.377,-0.395 0.368,-0.405C0.36,-0.415 0.346,-0.42 0.327,-0.42C0.309,-0.42 0.286,-0.413 0.26,-0.398C0.235,-0.384 0.208,-0.364 0.179,-0.338L0.117,-0L0.032,-0L0.115,-0.409L0.033,-0.424L0.033,-0.449L0.181,-0.482Z" style="fill:white;fill-rule:nonzero;"/>
            </g>
            <g transform="matrix(19.2,0,0,19.2,384.7,540.189)">
                <path d="M0.105,-0.222C0.104,-0.215 0.103,-0.208 0.103,-0.2C0.102,-0.192 0.102,-0.184 0.102,-0.176C0.102,-0.136 0.111,-0.104 0.13,-0.081C0.148,-0.058 0.174,-0.046 0.206,-0.046C0.229,-0.046 0.255,-0.053 0.282,-0.067C0.31,-0.081 0.338,-0.101 0.366,-0.128L0.366,-0.081C0.335,-0.051 0.304,-0.029 0.271,-0.014C0.238,0.001 0.205,0.009 0.172,0.009C0.124,0.009 0.087,-0.007 0.061,-0.039C0.034,-0.071 0.021,-0.116 0.021,-0.173C0.021,-0.215 0.029,-0.256 0.044,-0.296C0.06,-0.336 0.082,-0.371 0.11,-0.4C0.134,-0.425 0.161,-0.445 0.191,-0.46C0.221,-0.475 0.249,-0.482 0.275,-0.482C0.306,-0.482 0.332,-0.473 0.35,-0.455C0.369,-0.437 0.378,-0.413 0.378,-0.383C0.378,-0.339 0.354,-0.302 0.306,-0.273C0.257,-0.245 0.191,-0.228 0.105,-0.222ZM0.11,-0.256C0.168,-0.259 0.215,-0.273 0.252,-0.298C0.288,-0.322 0.306,-0.352 0.306,-0.386C0.306,-0.402 0.301,-0.414 0.291,-0.425C0.281,-0.435 0.269,-0.44 0.254,-0.44C0.223,-0.44 0.195,-0.424 0.169,-0.391C0.143,-0.358 0.124,-0.313 0.11,-0.256Z" style="fill:white;fill-rule:nonzero;"/>
            </g>
            <g transform="matrix(19.2,0,0,19.2,392.838,540.189)">
                <path d="M0.105,-0.222C0.104,-0.215 0.103,-0.208 0.103,-0.2C0.102,-0.192 0.102,-0.184 0.102,-0.176C0.102,-0.136 0.111,-0.104 0.13,-0.081C0.148,-0.058 0.174,-0.046 0.206,-0.046C0.229,-0.046 0.255,-0.053 0.282,-0.067C0.31,-0.081 0.338,-0.101 0.366,-0.128L0.366,-0.081C0.335,-0.051 0.304,-0.029 0.271,-0.014C0.238,0.001 0.205,0.009 0.172,0.009C0.124,0.009 0.087,-0.007 0.061,-0.039C0.034,-0.071 0.021,-0.116 0.021,-0.173C0.021,-0.215 0.029,-0.256 0.044,-0.296C0.06,-0.336 0.082,-0.371 0.11,-0.4C0.134,-0.425 0.161,-0.445 0.191,-0.46C0.221,-0.475 0.249,-0.482 0.275,-0.482C0.306,-0.482 0.332,-0.473 0.35,-0.455C0.369,-0.437 0.378,-0.413 0.378,-0.383C0.378,-0.339 0.354,-0.302 0.306,-0.273C0.257,-0.245 0.191,-0.228 0.105,-0.222ZM0.11,-0.256C0.168,-0.259 0.215,-0.273 0.252,-0.298C0.288,-0.322 0.306,-0.352 0.306,-0.386C0.306,-0.402 0.301,-0.414 0.291,-0.425C0.281,-0.435 0.269,-0.44 0.254,-0.44C0.223,-0.44 0.195,-0.424 0.169,-0.391C0.143,-0.358 0.124,-0.313 0.11,-0.256Z" style="fill:white;fill-rule:nonzero;"/>
            </g>
            <g transform="matrix(19.2,0,0,19.2,400.975,540.189)">
                <path d="M0.177,-0.482L0.197,-0.482L0.165,-0.345C0.196,-0.389 0.227,-0.423 0.258,-0.446C0.289,-0.47 0.317,-0.482 0.343,-0.482C0.36,-0.482 0.373,-0.477 0.384,-0.468C0.394,-0.458 0.399,-0.445 0.399,-0.43C0.399,-0.411 0.393,-0.395 0.381,-0.383C0.368,-0.371 0.352,-0.365 0.332,-0.365L0.325,-0.365L0.299,-0.419C0.255,-0.402 0.221,-0.38 0.199,-0.353C0.177,-0.326 0.162,-0.286 0.153,-0.235L0.112,-0L0.028,-0L0.111,-0.409L0.029,-0.424L0.029,-0.449L0.177,-0.482Z" style="fill:white;fill-rule:nonzero;"/>
            </g>
            <g transform="matrix(19.2,0,0,19.2,408.616,540.189)">
                <path d="M0.181,-0.482L0.207,-0.482L0.135,-0.108C0.134,-0.102 0.133,-0.097 0.133,-0.093C0.132,-0.089 0.132,-0.086 0.132,-0.083C0.132,-0.07 0.136,-0.061 0.144,-0.054C0.152,-0.047 0.164,-0.044 0.18,-0.044C0.189,-0.044 0.2,-0.045 0.212,-0.048C0.224,-0.05 0.238,-0.054 0.254,-0.059L0.254,-0.028C0.226,-0.016 0.201,-0.008 0.177,-0.002C0.153,0.004 0.132,0.007 0.113,0.007C0.092,0.007 0.076,0.001 0.065,-0.01C0.054,-0.02 0.049,-0.037 0.049,-0.059C0.049,-0.065 0.049,-0.073 0.051,-0.082C0.052,-0.09 0.053,-0.1 0.055,-0.111L0.114,-0.409L0.033,-0.424L0.033,-0.45L0.181,-0.482ZM0.201,-0.704C0.215,-0.704 0.228,-0.699 0.239,-0.688C0.25,-0.677 0.255,-0.665 0.255,-0.65C0.255,-0.635 0.25,-0.623 0.239,-0.612C0.228,-0.601 0.216,-0.596 0.201,-0.596C0.186,-0.596 0.173,-0.601 0.163,-0.612C0.152,-0.622 0.147,-0.635 0.147,-0.65C0.147,-0.665 0.152,-0.678 0.163,-0.688C0.173,-0.699 0.186,-0.704 0.201,-0.704Z" style="fill:white;fill-rule:nonzero;"/>
            </g>
            <g transform="matrix(19.2,0,0,19.2,414.128,540.189)">
                <path d="M0.181,-0.482L0.206,-0.482L0.188,-0.386C0.23,-0.419 0.266,-0.443 0.297,-0.459C0.329,-0.474 0.357,-0.482 0.382,-0.482C0.408,-0.482 0.428,-0.475 0.443,-0.46C0.458,-0.446 0.466,-0.427 0.466,-0.402C0.466,-0.393 0.465,-0.382 0.463,-0.37C0.461,-0.358 0.458,-0.339 0.452,-0.313L0.418,-0.158C0.418,-0.156 0.417,-0.153 0.416,-0.148C0.41,-0.12 0.407,-0.101 0.407,-0.092C0.407,-0.076 0.412,-0.064 0.421,-0.056C0.43,-0.047 0.442,-0.043 0.459,-0.043C0.466,-0.043 0.474,-0.044 0.483,-0.045C0.492,-0.047 0.502,-0.049 0.514,-0.052L0.514,-0.024C0.488,-0.014 0.465,-0.006 0.445,-0.001C0.425,0.003 0.408,0.006 0.394,0.006C0.37,0.006 0.351,0.001 0.339,-0.009C0.327,-0.019 0.321,-0.034 0.321,-0.054C0.321,-0.06 0.322,-0.068 0.323,-0.077C0.324,-0.086 0.326,-0.097 0.329,-0.108L0.372,-0.293C0.375,-0.305 0.377,-0.317 0.379,-0.328C0.38,-0.339 0.381,-0.348 0.381,-0.357C0.381,-0.379 0.377,-0.395 0.368,-0.405C0.36,-0.415 0.346,-0.42 0.327,-0.42C0.309,-0.42 0.286,-0.413 0.26,-0.398C0.235,-0.384 0.208,-0.364 0.179,-0.338L0.117,-0L0.032,-0L0.115,-0.409L0.033,-0.424L0.033,-0.449L0.181,-0.482Z" style="fill:white;fill-rule:nonzero;"/>
            </g>
            <g transform="matrix(19.2,0,0,19.2,424.806,540.189)">
                <path d="M0.139,-0.034C0.109,-0.027 0.086,-0.015 0.07,0.002C0.055,0.018 0.047,0.04 0.047,0.065C0.047,0.097 0.059,0.124 0.085,0.145C0.11,0.165 0.142,0.176 0.182,0.176C0.223,0.176 0.256,0.167 0.282,0.151C0.309,0.134 0.322,0.113 0.322,0.089C0.322,0.076 0.317,0.064 0.308,0.053C0.299,0.043 0.285,0.033 0.266,0.025L0.139,-0.034ZM0.311,-0.355C0.311,-0.384 0.305,-0.407 0.293,-0.422C0.282,-0.438 0.265,-0.446 0.243,-0.446C0.213,-0.446 0.186,-0.429 0.163,-0.396C0.14,-0.363 0.128,-0.323 0.128,-0.278C0.128,-0.251 0.134,-0.231 0.146,-0.216C0.158,-0.201 0.174,-0.194 0.195,-0.194C0.225,-0.194 0.252,-0.21 0.276,-0.242C0.299,-0.274 0.311,-0.312 0.311,-0.355ZM0.337,-0.458L0.48,-0.458L0.48,-0.415L0.377,-0.415C0.381,-0.404 0.384,-0.393 0.387,-0.382C0.389,-0.371 0.39,-0.36 0.39,-0.349C0.39,-0.296 0.371,-0.251 0.334,-0.215C0.297,-0.178 0.251,-0.16 0.198,-0.16C0.195,-0.16 0.191,-0.16 0.187,-0.16C0.183,-0.161 0.179,-0.161 0.175,-0.161C0.171,-0.153 0.167,-0.144 0.165,-0.135C0.163,-0.127 0.162,-0.118 0.162,-0.108L0.162,-0.102L0.321,-0.03C0.347,-0.018 0.367,-0.004 0.38,0.013C0.392,0.029 0.399,0.048 0.399,0.069C0.399,0.108 0.375,0.143 0.328,0.173C0.28,0.203 0.224,0.218 0.158,0.218C0.1,0.218 0.054,0.206 0.02,0.182C-0.014,0.158 -0.031,0.126 -0.031,0.085C-0.031,0.054 -0.02,0.028 0,0.006C0.021,-0.015 0.055,-0.036 0.102,-0.054C0.102,-0.056 0.101,-0.058 0.101,-0.061C0.101,-0.063 0.101,-0.066 0.101,-0.071C0.101,-0.087 0.104,-0.103 0.111,-0.118C0.117,-0.134 0.127,-0.15 0.141,-0.168C0.111,-0.18 0.089,-0.196 0.073,-0.217C0.057,-0.238 0.049,-0.262 0.049,-0.289C0.049,-0.343 0.068,-0.389 0.105,-0.427C0.143,-0.464 0.189,-0.483 0.244,-0.483C0.259,-0.483 0.274,-0.481 0.289,-0.477C0.304,-0.473 0.32,-0.466 0.337,-0.458Z" style="fill:white;fill-rule:nonzero;"/>
            </g>
        </g>
    </g>
</svg>
