<svg xmlns="http://www.w3.org/2000/svg" xml:space="preserve" style="fill-rule:evenodd;clip-rule:evenodd;stroke-linejoin:round;stroke-miterlimit:2" viewBox="0 0 863 165"><path d="M.588-.023a.713.713 0 0 1-.202.035.387.387 0 0 1-.092-.01.326.326 0 0 1-.205-.158.36.36 0 0 1-.046-.18c0-.104.032-.188.095-.252A.344.344 0 0 1 .39-.683a.64.64 0 0 1 .198.034v.154H.532L.517-.586.504-.604A.26.26 0 0 0 .392-.63a.229.229 0 0 0-.18.077.314.314 0 0 0-.066.21c0 .094.023.168.069.222.047.053.111.08.192.08A.3.3 0 0 0 .45-.044c.015-.002.029-.006.044-.01L.51-.07l.024-.111h.054v.158Z" style="fill:#fff;fill-rule:nonzero" transform="translate(168.564 75.97) scale(75.12)"/><path d="M.269-.448a.115.115 0 0 0-.1.056.262.262 0 0 0-.038.151c0 .063.013.113.038.15A.117.117 0 0 0 .37-.09a.262.262 0 0 0 .038-.151.27.27 0 0 0-.038-.151.118.118 0 0 0-.101-.056Zm0-.043a.22.22 0 0 1 .168.07.257.257 0 0 1 .065.18.253.253 0 0 1-.066.18.221.221 0 0 1-.167.07.218.218 0 0 1-.167-.07.257.257 0 0 1-.065-.18c0-.074.022-.134.065-.18a.216.216 0 0 1 .167-.07Z" style="fill:#fff;fill-rule:nonzero" transform="translate(216.027 75.97) scale(75.12)"/><path d="M.454-.424a.731.731 0 0 1 .1-.051.205.205 0 0 1 .072-.016c.04 0 .072.013.094.039a.161.161 0 0 1 .034.11v.285l.018.016.053.005V0H.607v-.036l.047-.005.018-.016v-.265C.672-.357.665-.383.65-.4S.613-.425.582-.425a.205.205 0 0 0-.051.008.473.473 0 0 0-.062.025v.335l.018.016.047.005V0H.321v-.036l.048-.005.017-.016v-.265C.386-.357.379-.383.365-.4.35-.416.328-.425.298-.425a.213.213 0 0 0-.053.008.465.465 0 0 0-.061.025v.335l.017.016.048.005V0H.03v-.036l.054-.005.017-.016v-.362H.03V-.45l.116-.036h.038v.055a.598.598 0 0 1 .091-.046.217.217 0 0 1 .069-.014.117.117 0 0 1 .11.067Z" style="fill:#fff;fill-rule:nonzero" transform="translate(256.521 75.97) scale(75.12)"/><path d="M.177-.058a.51.51 0 0 0 .045.012.2.2 0 0 0 .04.004c.05 0 .09-.018.12-.055a.221.221 0 0 0 .046-.147.206.206 0 0 0-.04-.134.126.126 0 0 0-.106-.05.173.173 0 0 0-.049.008.304.304 0 0 0-.056.026v.336ZM.023.218V.182L.077.177.093.161v-.58h-.07V-.45l.116-.036h.038v.055a.34.34 0 0 1 .077-.046.198.198 0 0 1 .07-.014c.056 0 .102.022.138.065.036.044.054.1.054.169a.262.262 0 0 1-.067.189.237.237 0 0 1-.179.071L.228.001.177-.006v.167l.017.016.064.005v.036H.023Z" style="fill:#fff;fill-rule:nonzero" transform="translate(319.83 75.97) scale(75.12)"/><path d="M.142-.491H.18v.331c0 .036.008.063.024.08.015.017.04.026.073.026a.276.276 0 0 0 .116-.03v-.339H.322v-.031l.116-.037h.038v.434l.018.016.047.005V0H.393v-.056a.444.444 0 0 1-.087.05.21.21 0 0 1-.075.016C.188.01.155-.003.132-.03a.166.166 0 0 1-.035-.113v-.28H.026v-.031l.116-.037Z" style="fill:#fff;fill-rule:nonzero" transform="translate(361.204 75.97) scale(75.12)"/><path d="M.088-.421H.025v-.031l.066-.029.043-.093h.037v.106h.152v.047H.171v.264c0 .043.006.072.018.087.012.015.034.022.065.022a.365.365 0 0 0 .069-.008v.037a.433.433 0 0 1-.131.022C.153.003.127-.004.111-.019.096-.033.088-.06.088-.098v-.323Z" style="fill:#fff;fill-rule:nonzero" transform="translate(403.937 75.97) scale(75.12)"/><path d="M.359-.305v-.016a.143.143 0 0 0-.027-.093C.315-.435.289-.446.255-.446a.111.111 0 0 0-.086.04.16.16 0 0 0-.041.101h.231Zm.089.199v.055a.341.341 0 0 1-.188.06.208.208 0 0 1-.161-.068.257.257 0 0 1-.062-.178.26.26 0 0 1 .065-.183.211.211 0 0 1 .166-.071.17.17 0 0 1 .132.053.205.205 0 0 1 .048.144v.019l-.001.012H.123v.011c0 .063.015.113.045.149a.152.152 0 0 0 .123.055.224.224 0 0 0 .074-.014.375.375 0 0 0 .083-.044Z" style="fill:#fff;fill-rule:nonzero" transform="translate(429.024 75.97) scale(75.12)"/><path d="M.03 0v-.036l.053-.005L.1-.057v-.362H.03V-.45l.116-.036h.038v.094a1.393 1.393 0 0 1 .107-.097l.01-.002h.015a.153.153 0 0 1 .06.013v.086H.344A.063.063 0 0 0 .322-.41a.072.072 0 0 0-.029-.006.093.093 0 0 0-.051.018.316.316 0 0 0-.058.055v.286l.017.016.07.005V0H.03Z" style="fill:#fff;fill-rule:nonzero" transform="translate(465.926 75.97) scale(75.12)"/><path d="M.06-.02v-.176h.059l.012.115.013.017a.184.184 0 0 0 .05.017c.019.004.04.006.062.006a.175.175 0 0 0 .11-.032.105.105 0 0 0 .041-.088c0-.051-.048-.097-.143-.138L.24-.309a.39.39 0 0 1-.136-.083.146.146 0 0 1-.033-.099c0-.058.021-.104.063-.139a.254.254 0 0 1 .168-.053.476.476 0 0 1 .17.028V-.5H.42L.405-.595.39-.612a.184.184 0 0 0-.041-.016A.254.254 0 0 0 .3-.633.141.141 0 0 0 .201-.6a.11.11 0 0 0-.037.088c0 .027.009.049.026.067a.376.376 0 0 0 .114.064l.025.01c.058.023.1.047.126.072a.133.133 0 0 1 .033.049.174.174 0 0 1 .011.061c0 .06-.024.109-.071.146A.296.296 0 0 1 .24.012.42.42 0 0 1 .06-.02Z" style="fill:#fff;fill-rule:nonzero" transform="translate(515.478 75.97) scale(75.12)"/><path d="M.425-.042a.46.46 0 0 1-.083.037.277.277 0 0 1-.08.012.21.21 0 0 1-.163-.068.26.26 0 0 1-.062-.18c0-.074.022-.134.066-.181a.226.226 0 0 1 .171-.069c.046 0 .083.009.11.026.026.018.04.042.04.072a.053.053 0 0 1-.015.039.06.06 0 0 1-.041.014.057.057 0 0 1-.022-.004.08.08 0 0 1-.023-.011v-.082a.128.128 0 0 0-.024-.011.126.126 0 0 0-.131.052.245.245 0 0 0-.04.148.21.21 0 0 0 .046.144c.03.035.071.052.124.052a.2.2 0 0 0 .064-.01.268.268 0 0 0 .063-.032v.052Z" style="fill:#fff;fill-rule:nonzero" transform="translate(557.256 75.97) scale(75.12)"/><path d="M.15-.486h.039v.429l.017.016.054.005V0H.035v-.036l.053-.005.017-.016v-.362h-.07V-.45L.15-.486Zm.004-.222c.016 0 .03.006.041.017a.057.057 0 0 1 .017.041.057.057 0 0 1-.058.057.057.057 0 0 1-.058-.057c0-.016.006-.03.017-.041a.057.057 0 0 1 .041-.017Z" style="fill:#fff;fill-rule:nonzero" transform="translate(590.747 75.97) scale(75.12)"/><path d="M.359-.305v-.016a.143.143 0 0 0-.027-.093C.315-.435.289-.446.255-.446a.111.111 0 0 0-.086.04.16.16 0 0 0-.041.101h.231Zm.089.199v.055a.341.341 0 0 1-.188.06.208.208 0 0 1-.161-.068.257.257 0 0 1-.062-.178.26.26 0 0 1 .065-.183.211.211 0 0 1 .166-.071.17.17 0 0 1 .132.053.205.205 0 0 1 .048.144v.019l-.001.012H.123v.011c0 .063.015.113.045.149a.152.152 0 0 0 .123.055.224.224 0 0 0 .074-.014.375.375 0 0 0 .083-.044Z" style="fill:#fff;fill-rule:nonzero" transform="translate(611.765 75.97) scale(75.12)"/><path d="M.03 0v-.036l.054-.005.017-.016v-.362H.03V-.45l.116-.036h.038v.055a.738.738 0 0 1 .097-.047.186.186 0 0 1 .064-.013c.044 0 .077.013.1.039a.166.166 0 0 1 .035.113v.282l.017.016.054.005V0H.332v-.036L.38-.041l.017-.016v-.265c0-.037-.008-.064-.023-.079C.358-.417.332-.425.296-.425a.206.206 0 0 0-.052.008.456.456 0 0 0-.06.025v.335l.017.016.048.005V0H.03Z" style="fill:#fff;fill-rule:nonzero" transform="translate(648.663 75.97) scale(75.12)"/><path d="M.425-.042a.46.46 0 0 1-.083.037.277.277 0 0 1-.08.012.21.21 0 0 1-.163-.068.26.26 0 0 1-.062-.18c0-.074.022-.134.066-.181a.226.226 0 0 1 .171-.069c.046 0 .083.009.11.026.026.018.04.042.04.072a.053.053 0 0 1-.015.039.06.06 0 0 1-.041.014.057.057 0 0 1-.022-.004.08.08 0 0 1-.023-.011v-.082a.128.128 0 0 0-.024-.011.126.126 0 0 0-.131.052.245.245 0 0 0-.04.148.21.21 0 0 0 .046.144c.03.035.071.052.124.052a.2.2 0 0 0 .064-.01.268.268 0 0 0 .063-.032v.052Z" style="fill:#fff;fill-rule:nonzero" transform="translate(691.321 75.97) scale(75.12)"/><path d="M.359-.305v-.016a.143.143 0 0 0-.027-.093C.315-.435.289-.446.255-.446a.111.111 0 0 0-.086.04.16.16 0 0 0-.041.101h.231Zm.089.199v.055a.341.341 0 0 1-.188.06.208.208 0 0 1-.161-.068.257.257 0 0 1-.062-.178.26.26 0 0 1 .065-.183.211.211 0 0 1 .166-.071.17.17 0 0 1 .132.053.205.205 0 0 1 .048.144v.019l-.001.012H.123v.011c0 .063.015.113.045.149a.152.152 0 0 0 .123.055.224.224 0 0 0 .074-.014.375.375 0 0 0 .083-.044Z" style="fill:#fff;fill-rule:nonzero" transform="translate(724.809 75.97) scale(75.12)"/><path d="M100.911 39.387h-14.11l.021 20.765H67.931v24.172h9.391v33.178h-51.74V84.288h9.412l.015-24.136H15.968V39.387H1.681V1.408h99.23v37.979Z" style="fill-rule:nonzero" transform="matrix(1.41234 0 0 1.41234 -2.374 -1.989)"/><path d="M82.087 55.33h-9.552l-2.25 2.291h13.989V39.34l-2.188 2.198.001 13.792Zm-25.771-4.683v45.214h.037l2.317-2.214h-.01V52.762h4.671v36.193h9.454v23.864H30.342l-2.219 2.193h46.932V86.814h-9.427V52.762h4.656l2.25-2.114-16.218-.001Zm7.005 54.755H40.076l-2.292 2.333h27.937V93.647h-.01l-2.38 2.219h-.011l.001 9.536Zm.011-79.693v13.63h2.297V28.058h9.411l2.131-2.349H63.332Zm33.041 8.656H77.171l-2.131 2.49h23.604V3.901l-2.271 2.49v27.974Zm-70.568-8.609v8.609H7.045l-2.682 2.49h23.713v-8.797h9.683l2.26-2.297-14.214-.005Zm14.214 27.005h-6.938v4.859H18.993l2.151-2.291h9.604v-4.683h16.167l-2.229 2.115h-4.667Z" style="fill:#ccc;fill-rule:nonzero" transform="matrix(1.41234 0 0 1.41234 -2.374 -1.989)"/><path d="M37.785 93.647h6.907V52.762h-4.667v36.156h-9.682v23.901l7.442-7.698V93.647Zm2.292 2.25v9.505l4.521-4.844h6.958V46.146l-4.64 4.495v45.255l-6.839.001Zm18.609-2.255h7.037v1.979l7.068-6.609v-.058h-9.464l-4.672 4.693h.016l.015-.005Zm-18.661-67.88V39.34h11.771V15.611L40.025 25.762Zm46.797-10.151L77.166 25.71v8.656l9.656-9.146v-9.609Zm-70.765 0h70.765l9.547-9.219H7.047v27.973l9.01-8.974v-9.78Zm61.464 30.536-4.984 4.495v4.687l4.984-4.682v-4.5ZM63.324 95.876v-.016H56.35l-4.792 4.698h7.26l4.506-4.682Zm-37.26-45.229-4.917 4.682V41.537H82.09l-4.568 4.609H26.063l.001 4.501Z" style="fill:#c00;fill-rule:nonzero" transform="matrix(1.41234 0 0 1.41234 -2.374 -1.989)"/><path d="M37.785 93.647v14.088l2.292-2.333v-9.506h6.839V50.642l-2.224 2.12v40.885h-6.907Zm18.563 2.214h6.984l2.38-2.214.006-.005h-7.032l-.015.005-2.318 2.214h-.005Zm16.187-45.219-2.25 2.12v4.859l2.25-2.292v-4.687ZM30.342 88.918h9.682V52.762h-2.328v34.021h-9.573v28.23l2.219-2.193V88.918Zm21.453-49.579H40.024V25.761l-2.265 2.297v11.281H18.993V57.62l2.151-2.292V41.536h60.943l2.182-2.198-32.474.001ZM4.363 36.855l2.682-2.49V6.392h89.323l2.276-2.49H4.363v32.953Zm72.803-2.49-2.131 2.49v-8.797l2.131-2.349v8.656Z" style="fill:#fff;fill-rule:nonzero" transform="matrix(1.41234 0 0 1.41234 -2.374 -1.989)"/><path d="M80.733 115.45v-.74h.49c.255 0 .521.052.521.349 0 .365-.271.391-.578.391h-.433Zm0 .302h.417l.625 1.036h.406l-.682-1.052c.359-.036.625-.229.625-.651 0-.474-.281-.682-.844-.682h-.906v2.385h.359v-1.036Zm.438 1.911c1.13 0 2.088-.875 2.088-2.073 0-1.187-.958-2.062-2.088-2.062-1.136 0-2.099.875-2.099 2.062 0 1.198.963 2.073 2.099 2.073m-1.688-2.073c0-.979.74-1.719 1.688-1.719.932 0 1.672.74 1.672 1.719 0 .995-.74 1.729-1.672 1.729-.948 0-1.688-.734-1.688-1.729" style="fill-rule:nonzero" transform="matrix(1.41234 0 0 1.41234 -2.374 -1.989)"/><path d="M.051-.671h.214v.038l-.057.005-.007.015.037.471.248-.529h.065l.056.536.219-.478-.008-.015-.059-.005v-.038h.192v.038l-.058.006L.6 0H.543L.484-.549.229 0H.166l-.05-.61-.017-.018-.048-.005v-.038Z" style="fill:#fff;fill-rule:nonzero" transform="matrix(51.67546 0 0 51.67546 169.167 130.353)"/><path d="M.223-.736h.031L.235-.66l-.021.101-.033.171A.667.667 0 0 1 .288-.46a.201.201 0 0 1 .085-.023c.026 0 .046.007.061.022a.075.075 0 0 1 .023.058L.454-.37l-.011.057-.035.155-.008.04-.002.025c0 .016.004.028.013.037.009.009.022.013.038.013l.025-.002.031-.007v.027a.556.556 0 0 1-.069.023.228.228 0 0 1-.051.008C.36.006.341.001.33-.009.318-.019.312-.034.312-.055l.002-.024a.354.354 0 0 1 .005-.029l.043-.185C.365-.306.368-.319.369-.33a.157.157 0 0 0 .003-.027c0-.022-.004-.038-.013-.049C.35-.416.336-.421.318-.421a.138.138 0 0 0-.066.022.434.434 0 0 0-.082.06L.108 0H.023L.16-.67.066-.678v-.025l.157-.033Z" style="fill:#fff;fill-rule:nonzero" transform="matrix(51.67546 0 0 51.67546 215.57 130.353)"/><path d="M.181-.482h.026l-.072.374-.002.015-.001.01c0 .013.004.022.012.029.008.007.02.01.036.01a.33.33 0 0 0 .074-.015v.031a.5.5 0 0 1-.077.026.265.265 0 0 1-.064.009.065.065 0 0 1-.048-.017C.054-.02.049-.037.049-.059c0-.006 0-.014.002-.023l.004-.029.059-.298-.081-.015V-.45l.148-.032Zm.02-.222c.014 0 .027.005.038.016a.05.05 0 0 1 .016.038.05.05 0 0 1-.016.038.05.05 0 0 1-.038.016.05.05 0 0 1-.038-.016.05.05 0 0 1-.016-.038.05.05 0 0 1 .016-.038.05.05 0 0 1 .038-.016Z" style="fill:#fff;fill-rule:nonzero" transform="matrix(51.67546 0 0 51.67546 244.031 130.353)"/><path d="M.167-.579h.046l-.021.114h.144v.043H.184l-.052.267a.226.226 0 0 0-.006.044c0 .02.005.036.016.046.01.011.025.016.045.016a.424.424 0 0 0 .095-.02v.032a.633.633 0 0 1-.089.033.259.259 0 0 1-.065.011C.1.007.079-.001.065-.016.051-.031.044-.053.044-.084l.002-.031a.225.225 0 0 1 .006-.036l.054-.271-.062.005v-.03l.073-.032.05-.1Z" style="fill:#fff;fill-rule:nonzero" transform="matrix(51.67546 0 0 51.67546 258.867 130.353)"/><path d="M.317-.443H.303a.176.176 0 0 0-.146.077.313.313 0 0 0-.057.194c0 .04.007.07.022.09.014.02.036.03.065.03a.118.118 0 0 0 .058-.016.283.283 0 0 0 .06-.05l.052-.264-.04-.061ZM.41-.482h.052a1.035 1.035 0 0 0-.038.143l-.036.177c-.003.016-.006.029-.007.041a.189.189 0 0 0-.003.029c0 .016.004.027.013.035.008.007.022.011.041.011.004 0 .009 0 .016-.002l.04-.008v.03a.469.469 0 0 1-.123.035C.344.009.329.003.319-.01.309-.022.304-.041.304-.067v-.008a.339.339 0 0 1-.077.063.142.142 0 0 1-.072.021.123.123 0 0 1-.101-.047.197.197 0 0 1-.037-.128.342.342 0 0 1 .052-.185A.26.26 0 0 1 .3-.482a.202.202 0 0 1 .09.022l.02-.022Z" style="fill:#fff;fill-rule:nonzero" transform="matrix(51.67546 0 0 51.67546 276.076 130.353)"/><path d="M.307-.36.249-.436H.244c-.042 0-.078.024-.107.071a.349.349 0 0 0-.043.179c0 .043.009.076.027.1a.085.085 0 0 0 .073.036.156.156 0 0 0 .076-.022.31.31 0 0 0 .08-.061v.046a.377.377 0 0 1-.093.072.21.21 0 0 1-.094.025.133.133 0 0 1-.108-.05.206.206 0 0 1-.04-.132c0-.044.007-.085.021-.124a.31.31 0 0 1 .147-.166.214.214 0 0 1 .094-.023c.027 0 .049.007.067.02.017.014.026.03.026.05a.05.05 0 0 1-.017.039.075.075 0 0 1-.046.016Z" style="fill:#fff;fill-rule:nonzero" transform="matrix(51.67546 0 0 51.67546 303.2 130.353)"/><path d="M.177-.482h.02l-.032.137a.441.441 0 0 1 .093-.101.143.143 0 0 1 .085-.036c.017 0 .03.005.041.014.01.01.015.023.015.038a.064.064 0 0 1-.018.047.069.069 0 0 1-.049.018H.325L.299-.419a.236.236 0 0 0-.1.066.258.258 0 0 0-.046.118L.112 0H.028l.083-.409-.082-.015v-.025l.148-.033Z" style="fill:#fff;fill-rule:nonzero" transform="matrix(51.67546 0 0 51.67546 323.563 130.353)"/><path d="M.105-.222A.15.15 0 0 0 .103-.2l-.001.024c0 .04.009.072.028.095a.092.092 0 0 0 .076.035.168.168 0 0 0 .076-.021.342.342 0 0 0 .084-.061v.047a.338.338 0 0 1-.095.067.238.238 0 0 1-.099.023.135.135 0 0 1-.111-.048.202.202 0 0 1-.04-.134.318.318 0 0 1 .17-.287.188.188 0 0 1 .084-.022c.031 0 .057.009.075.027a.094.094 0 0 1 .028.072c0 .044-.024.081-.072.11a.471.471 0 0 1-.201.051ZM.11-.256a.274.274 0 0 0 .142-.042c.036-.024.054-.054.054-.088a.054.054 0 0 0-.015-.039.05.05 0 0 0-.037-.015c-.031 0-.059.016-.085.049a.352.352 0 0 0-.059.135Z" style="fill:#fff;fill-rule:nonzero" transform="matrix(51.67546 0 0 51.67546 344.126 130.353)"/><path d="m.622-.649-.028.154H.552v-.096L.544-.61a.27.27 0 0 0-.051-.02.28.28 0 0 0-.15.011.281.281 0 0 0-.082.051.368.368 0 0 0-.092.136.479.479 0 0 0-.033.179c0 .069.018.123.055.161.036.038.087.057.153.057a.2.2 0 0 0 .042-.004.251.251 0 0 0 .044-.01l.019-.017.044-.115h.043l-.027.158a.85.85 0 0 1-.102.026.556.556 0 0 1-.097.009.26.26 0 0 1-.196-.075.277.277 0 0 1-.073-.202.43.43 0 0 1 .155-.332.383.383 0 0 1 .245-.086.553.553 0 0 1 .181.034Z" style="fill:#fff;fill-rule:nonzero" transform="matrix(51.67546 0 0 51.67546 380.385 130.353)"/><path d="M.266-.444c-.044 0-.082.025-.113.076a.352.352 0 0 0-.046.188.19.19 0 0 0 .026.109.08.08 0 0 0 .071.039c.044 0 .082-.025.113-.076a.346.346 0 0 0 .047-.185.208.208 0 0 0-.026-.112.081.081 0 0 0-.072-.039Zm.013-.039c.052 0 .094.018.124.053a.208.208 0 0 1 .046.143.32.32 0 0 1-.081.215.24.24 0 0 1-.079.061.24.24 0 0 1-.097.02.157.157 0 0 1-.124-.052.197.197 0 0 1-.046-.138.346.346 0 0 1 .08-.219.25.25 0 0 1 .081-.062.224.224 0 0 1 .096-.021Z" style="fill:#fff;fill-rule:nonzero" transform="matrix(51.67546 0 0 51.67546 411.597 130.353)"/><path d="M.212-.736h.027l-.008.042-.004.023-.101.503a.532.532 0 0 0-.011.081c0 .015.005.027.014.035.009.008.023.012.041.012a.117.117 0 0 0 .029-.004.767.767 0 0 0 .042-.012v.031a.43.43 0 0 1-.133.034C.083.009.065.003.053-.01.041-.022.035-.04.035-.065l.005-.04.013-.075.096-.49L.06-.68v-.026l.152-.03Z" style="fill:#fff;fill-rule:nonzero" transform="matrix(51.67546 0 0 51.67546 437.537 130.353)"/><path d="M.212-.736h.027l-.008.042-.004.023-.101.503a.532.532 0 0 0-.011.081c0 .015.005.027.014.035.009.008.023.012.041.012a.117.117 0 0 0 .029-.004.767.767 0 0 0 .042-.012v.031a.43.43 0 0 1-.133.034C.083.009.065.003.053-.01.041-.022.035-.04.035-.065l.005-.04.013-.075.096-.49L.06-.68v-.026l.152-.03Z" style="fill:#fff;fill-rule:nonzero" transform="matrix(51.67546 0 0 51.67546 451.742 130.353)"/><path d="M.105-.222A.15.15 0 0 0 .103-.2l-.001.024c0 .04.009.072.028.095a.092.092 0 0 0 .076.035.168.168 0 0 0 .076-.021.342.342 0 0 0 .084-.061v.047a.338.338 0 0 1-.095.067.238.238 0 0 1-.099.023.135.135 0 0 1-.111-.048.202.202 0 0 1-.04-.134.318.318 0 0 1 .17-.287.188.188 0 0 1 .084-.022c.031 0 .057.009.075.027a.094.094 0 0 1 .028.072c0 .044-.024.081-.072.11a.471.471 0 0 1-.201.051ZM.11-.256a.274.274 0 0 0 .142-.042c.036-.024.054-.054.054-.088a.054.054 0 0 0-.015-.039.05.05 0 0 0-.037-.015c-.031 0-.059.016-.085.049a.352.352 0 0 0-.059.135Z" style="fill:#fff;fill-rule:nonzero" transform="matrix(51.67546 0 0 51.67546 465.948 130.353)"/><path d="M.139-.034A.134.134 0 0 0 .07.002a.09.09 0 0 0-.023.063c0 .032.012.059.038.08a.15.15 0 0 0 .097.031.187.187 0 0 0 .1-.025C.309.134.322.113.322.089A.056.056 0 0 0 .308.053.118.118 0 0 0 .266.025L.139-.034Zm.172-.321a.107.107 0 0 0-.018-.067C.282-.438.265-.446.243-.446c-.03 0-.057.017-.08.05a.203.203 0 0 0-.035.118c0 .027.006.047.018.062a.059.059 0 0 0 .049.022c.03 0 .057-.016.081-.048a.19.19 0 0 0 .035-.113Zm.026-.103H.48v.043H.377a.184.184 0 0 1 .013.066.18.18 0 0 1-.056.134.186.186 0 0 1-.136.055H.187L.175-.161a.117.117 0 0 0-.013.053v.006l.159.072A.153.153 0 0 1 .38.013a.092.092 0 0 1 .019.056c0 .039-.024.074-.071.104a.313.313 0 0 1-.17.045A.235.235 0 0 1 .02.182.112.112 0 0 1-.031.085c0-.031.011-.057.031-.079a.294.294 0 0 1 .102-.06L.101-.061v-.01a.11.11 0 0 1 .01-.047.194.194 0 0 1 .03-.05.154.154 0 0 1-.068-.049.116.116 0 0 1-.024-.072.191.191 0 0 1 .24-.188.298.298 0 0 1 .048.019Z" style="fill:#fff;fill-rule:nonzero" transform="matrix(51.67546 0 0 51.67546 487.848 130.353)"/><path d="M.105-.222A.15.15 0 0 0 .103-.2l-.001.024c0 .04.009.072.028.095a.092.092 0 0 0 .076.035.168.168 0 0 0 .076-.021.342.342 0 0 0 .084-.061v.047a.338.338 0 0 1-.095.067.238.238 0 0 1-.099.023.135.135 0 0 1-.111-.048.202.202 0 0 1-.04-.134.318.318 0 0 1 .17-.287.188.188 0 0 1 .084-.022c.031 0 .057.009.075.027a.094.094 0 0 1 .028.072c0 .044-.024.081-.072.11a.471.471 0 0 1-.201.051ZM.11-.256a.274.274 0 0 0 .142-.042c.036-.024.054-.054.054-.088a.054.054 0 0 0-.015-.039.05.05 0 0 0-.037-.015c-.031 0-.059.016-.085.049a.352.352 0 0 0-.059.135Z" style="fill:#fff;fill-rule:nonzero" transform="matrix(51.67546 0 0 51.67546 512.703 130.353)"/><path d="M.266-.444c-.044 0-.082.025-.113.076a.352.352 0 0 0-.046.188.19.19 0 0 0 .026.109.08.08 0 0 0 .071.039c.044 0 .082-.025.113-.076a.346.346 0 0 0 .047-.185.208.208 0 0 0-.026-.112.081.081 0 0 0-.072-.039Zm.013-.039c.052 0 .094.018.124.053a.208.208 0 0 1 .046.143.32.32 0 0 1-.081.215.24.24 0 0 1-.079.061.24.24 0 0 1-.097.02.157.157 0 0 1-.124-.052.197.197 0 0 1-.046-.138.346.346 0 0 1 .08-.219.25.25 0 0 1 .081-.062.224.224 0 0 1 .096-.021Z" style="fill:#fff;fill-rule:nonzero" transform="matrix(51.67546 0 0 51.67546 548.962 130.353)"/><path d="M.354-.621.272-.688C.253-.676.236-.65.221-.611a.837.837 0 0 0-.039.156h.141v.045H.174l-.04.284a.774.774 0 0 1-.03.137.38.38 0 0 1-.124.176.135.135 0 0 1-.077.029.053.053 0 0 1-.039-.015.049.049 0 0 1-.015-.038c0-.008.002-.015.006-.022A.046.046 0 0 1-.129.123l.104.027A.217.217 0 0 0 .021.064C.033.027.045-.035.058-.123L.1-.41l-.067.007.001-.033.076-.031a.45.45 0 0 1 .08-.194c.038-.047.081-.071.13-.071.023 0 .043.006.059.018a.048.048 0 0 1 .011.075.068.068 0 0 1-.036.018Z" style="fill:#fff;fill-rule:nonzero" transform="matrix(51.67546 0 0 51.67546 574.9 130.353)"/><path d="M.088-.671h.465l-.028.146H.477V-.61L.466-.625H.251l-.049.253h.152l.018-.014.022-.073h.043l-.042.22H.354l.004-.072-.012-.014H.193l-.054.279h.255l.018-.016.034-.101h.046L.46 0h-.484v-.038l.063-.006.017-.014.107-.555-.011-.015-.064-.005v-.038Z" style="fill:#fff;fill-rule:nonzero" transform="matrix(51.67546 0 0 51.67546 604.347 130.353)"/><path d="M.181-.482h.025l-.018.096a.71.71 0 0 1 .109-.073.205.205 0 0 1 .085-.023c.026 0 .046.007.061.022a.075.075 0 0 1 .023.058.2.2 0 0 1-.003.032l-.011.057-.034.155-.002.01a.344.344 0 0 0-.009.056c0 .016.005.028.014.036.009.009.021.013.038.013l.024-.002.031-.007v.028a.617.617 0 0 1-.069.023.279.279 0 0 1-.051.007C.37.006.351.001.339-.009.327-.019.321-.034.321-.054l.002-.023a.21.21 0 0 1 .006-.031l.043-.185.007-.035.002-.029c0-.022-.004-.038-.013-.048C.36-.415.346-.42.327-.42a.14.14 0 0 0-.067.022.465.465 0 0 0-.081.06L.117 0H.032l.083-.409-.082-.015v-.025l.148-.033Z" style="fill:#fff;fill-rule:nonzero" transform="matrix(51.67546 0 0 51.67546 632.555 130.353)"/><path d="M.139-.034A.134.134 0 0 0 .07.002a.09.09 0 0 0-.023.063c0 .032.012.059.038.08a.15.15 0 0 0 .097.031.187.187 0 0 0 .1-.025C.309.134.322.113.322.089A.056.056 0 0 0 .308.053.118.118 0 0 0 .266.025L.139-.034Zm.172-.321a.107.107 0 0 0-.018-.067C.282-.438.265-.446.243-.446c-.03 0-.057.017-.08.05a.203.203 0 0 0-.035.118c0 .027.006.047.018.062a.059.059 0 0 0 .049.022c.03 0 .057-.016.081-.048a.19.19 0 0 0 .035-.113Zm.026-.103H.48v.043H.377a.184.184 0 0 1 .013.066.18.18 0 0 1-.056.134.186.186 0 0 1-.136.055H.187L.175-.161a.117.117 0 0 0-.013.053v.006l.159.072A.153.153 0 0 1 .38.013a.092.092 0 0 1 .019.056c0 .039-.024.074-.071.104a.313.313 0 0 1-.17.045A.235.235 0 0 1 .02.182.112.112 0 0 1-.031.085c0-.031.011-.057.031-.079a.294.294 0 0 1 .102-.06L.101-.061v-.01a.11.11 0 0 1 .01-.047.194.194 0 0 1 .03-.05.154.154 0 0 1-.068-.049.116.116 0 0 1-.024-.072.191.191 0 0 1 .24-.188.298.298 0 0 1 .048.019Z" style="fill:#fff;fill-rule:nonzero" transform="matrix(51.67546 0 0 51.67546 661.295 130.353)"/><path d="M.181-.482h.026l-.072.374-.002.015-.001.01c0 .013.004.022.012.029.008.007.02.01.036.01a.33.33 0 0 0 .074-.015v.031a.5.5 0 0 1-.077.026.265.265 0 0 1-.064.009.065.065 0 0 1-.048-.017C.054-.02.049-.037.049-.059c0-.006 0-.014.002-.023l.004-.029.059-.298-.081-.015V-.45l.148-.032Zm.02-.222c.014 0 .027.005.038.016a.05.05 0 0 1 .016.038.05.05 0 0 1-.016.038.05.05 0 0 1-.038.016.05.05 0 0 1-.038-.016.05.05 0 0 1-.016-.038.05.05 0 0 1 .016-.038.05.05 0 0 1 .038-.016Z" style="fill:#fff;fill-rule:nonzero" transform="matrix(51.67546 0 0 51.67546 686.15 130.353)"/><path d="M.181-.482h.025l-.018.096a.71.71 0 0 1 .109-.073.205.205 0 0 1 .085-.023c.026 0 .046.007.061.022a.075.075 0 0 1 .023.058.2.2 0 0 1-.003.032l-.011.057-.034.155-.002.01a.344.344 0 0 0-.009.056c0 .016.005.028.014.036.009.009.021.013.038.013l.024-.002.031-.007v.028a.617.617 0 0 1-.069.023.279.279 0 0 1-.051.007C.37.006.351.001.339-.009.327-.019.321-.034.321-.054l.002-.023a.21.21 0 0 1 .006-.031l.043-.185.007-.035.002-.029c0-.022-.004-.038-.013-.048C.36-.415.346-.42.327-.42a.14.14 0 0 0-.067.022.465.465 0 0 0-.081.06L.117 0H.032l.083-.409-.082-.015v-.025l.148-.033Z" style="fill:#fff;fill-rule:nonzero" transform="matrix(51.67546 0 0 51.67546 700.985 130.353)"/><path d="M.105-.222A.15.15 0 0 0 .103-.2l-.001.024c0 .04.009.072.028.095a.092.092 0 0 0 .076.035.168.168 0 0 0 .076-.021.342.342 0 0 0 .084-.061v.047a.338.338 0 0 1-.095.067.238.238 0 0 1-.099.023.135.135 0 0 1-.111-.048.202.202 0 0 1-.04-.134.318.318 0 0 1 .17-.287.188.188 0 0 1 .084-.022c.031 0 .057.009.075.027a.094.094 0 0 1 .028.072c0 .044-.024.081-.072.11a.471.471 0 0 1-.201.051ZM.11-.256a.274.274 0 0 0 .142-.042c.036-.024.054-.054.054-.088a.054.054 0 0 0-.015-.039.05.05 0 0 0-.037-.015c-.031 0-.059.016-.085.049a.352.352 0 0 0-.059.135Z" style="fill:#fff;fill-rule:nonzero" transform="matrix(51.67546 0 0 51.67546 729.724 130.353)"/><path d="M.105-.222A.15.15 0 0 0 .103-.2l-.001.024c0 .04.009.072.028.095a.092.092 0 0 0 .076.035.168.168 0 0 0 .076-.021.342.342 0 0 0 .084-.061v.047a.338.338 0 0 1-.095.067.238.238 0 0 1-.099.023.135.135 0 0 1-.111-.048.202.202 0 0 1-.04-.134.318.318 0 0 1 .17-.287.188.188 0 0 1 .084-.022c.031 0 .057.009.075.027a.094.094 0 0 1 .028.072c0 .044-.024.081-.072.11a.471.471 0 0 1-.201.051ZM.11-.256a.274.274 0 0 0 .142-.042c.036-.024.054-.054.054-.088a.054.054 0 0 0-.015-.039.05.05 0 0 0-.037-.015c-.031 0-.059.016-.085.049a.352.352 0 0 0-.059.135Z" style="fill:#fff;fill-rule:nonzero" transform="matrix(51.67546 0 0 51.67546 751.627 130.353)"/><path d="M.177-.482h.02l-.032.137a.441.441 0 0 1 .093-.101.143.143 0 0 1 .085-.036c.017 0 .03.005.041.014.01.01.015.023.015.038a.064.064 0 0 1-.018.047.069.069 0 0 1-.049.018H.325L.299-.419a.236.236 0 0 0-.1.066.258.258 0 0 0-.046.118L.112 0H.028l.083-.409-.082-.015v-.025l.148-.033Z" style="fill:#fff;fill-rule:nonzero" transform="matrix(51.67546 0 0 51.67546 773.527 130.353)"/><path d="M.181-.482h.026l-.072.374-.002.015-.001.01c0 .013.004.022.012.029.008.007.02.01.036.01a.33.33 0 0 0 .074-.015v.031a.5.5 0 0 1-.077.026.265.265 0 0 1-.064.009.065.065 0 0 1-.048-.017C.054-.02.049-.037.049-.059c0-.006 0-.014.002-.023l.004-.029.059-.298-.081-.015V-.45l.148-.032Zm.02-.222c.014 0 .027.005.038.016a.05.05 0 0 1 .016.038.05.05 0 0 1-.016.038.05.05 0 0 1-.038.016.05.05 0 0 1-.038-.016.05.05 0 0 1-.016-.038.05.05 0 0 1 .016-.038.05.05 0 0 1 .038-.016Z" style="fill:#fff;fill-rule:nonzero" transform="matrix(51.67546 0 0 51.67546 794.092 130.353)"/><path d="M.181-.482h.025l-.018.096a.71.71 0 0 1 .109-.073.205.205 0 0 1 .085-.023c.026 0 .046.007.061.022a.075.075 0 0 1 .023.058.2.2 0 0 1-.003.032l-.011.057-.034.155-.002.01a.344.344 0 0 0-.009.056c0 .016.005.028.014.036.009.009.021.013.038.013l.024-.002.031-.007v.028a.617.617 0 0 1-.069.023.279.279 0 0 1-.051.007C.37.006.351.001.339-.009.327-.019.321-.034.321-.054l.002-.023a.21.21 0 0 1 .006-.031l.043-.185.007-.035.002-.029c0-.022-.004-.038-.013-.048C.36-.415.346-.42.327-.42a.14.14 0 0 0-.067.022.465.465 0 0 0-.081.06L.117 0H.032l.083-.409-.082-.015v-.025l.148-.033Z" style="fill:#fff;fill-rule:nonzero" transform="matrix(51.67546 0 0 51.67546 808.928 130.353)"/><path d="M.139-.034A.134.134 0 0 0 .07.002a.09.09 0 0 0-.023.063c0 .032.012.059.038.08a.15.15 0 0 0 .097.031.187.187 0 0 0 .1-.025C.309.134.322.113.322.089A.056.056 0 0 0 .308.053.118.118 0 0 0 .266.025L.139-.034Zm.172-.321a.107.107 0 0 0-.018-.067C.282-.438.265-.446.243-.446c-.03 0-.057.017-.08.05a.203.203 0 0 0-.035.118c0 .027.006.047.018.062a.059.059 0 0 0 .049.022c.03 0 .057-.016.081-.048a.19.19 0 0 0 .035-.113Zm.026-.103H.48v.043H.377a.184.184 0 0 1 .013.066.18.18 0 0 1-.056.134.186.186 0 0 1-.136.055H.187L.175-.161a.117.117 0 0 0-.013.053v.006l.159.072A.153.153 0 0 1 .38.013a.092.092 0 0 1 .019.056c0 .039-.024.074-.071.104a.313.313 0 0 1-.17.045A.235.235 0 0 1 .02.182.112.112 0 0 1-.031.085c0-.031.011-.057.031-.079a.294.294 0 0 1 .102-.06L.101-.061v-.01a.11.11 0 0 1 .01-.047.194.194 0 0 1 .03-.05.154.154 0 0 1-.068-.049.116.116 0 0 1-.024-.072.191.191 0 0 1 .24-.188.298.298 0 0 1 .048.019Z" style="fill:#fff;fill-rule:nonzero" transform="matrix(51.67546 0 0 51.67546 837.667 130.353)"/></svg>